
<svg baseProfile="full" height="101.24542400240898" version="1.1" width="824.4505444276729" xmlns="http://www.w3.org/2000/svg" xmlns:ev="http://www.w3.org/2001/xml-events" xmlns:xlink="http://www.w3.org/1999/xlink"><defs/><rect fill="white" height="101.24542400240898" width="824.4505444276729" x="0" y="0"/><path d="M25,25.595786890480667 m0.0,0.0 m41.3063592556864,7.042192621156573 l-0.0170873012393713,0.02692511072382331 -2.565634548664093,0.18404364585876465 l-3.599429130554199,0.7384295016527176 -4.056224524974823,1.3838502764701843 l-5.7207077741622925,2.849012315273285 -3.6326250433921814,2.514641582965851 l-2.8647732734680176,2.8437402844429016 -2.279926687479019,3.520808517932892 l-1.9160856306552887,5.663493275642395 -0.34109674394130707,4.453078210353851 l1.7374908924102783,6.027944087982178 1.5091587603092194,2.472793012857437 l4.11315381526947,4.327650666236877 5.400460958480835,3.4950801730155945 l3.1749218702316284,1.3107047975063324 6.715100407600403,1.6535796225070953 l10.582703351974487,0.14166940934956074 3.056510090827942,-0.5611584335565567 l3.73475581407547,-1.3019627332687378 5.555470585823059,-3.0437111854553223 l4.925965964794159,-4.418867826461792 3.588763475418091,-5.663330554962158 l1.7153719067573547,-12.391756772994995 -1.273890733718872,-3.3198586106300354 l-3.3817237615585327,-4.376087188720703 -4.8016610741615295,-3.768030107021332 l-8.72507393360138,-4.229239225387573 -6.68153703212738,-1.7182856798171997 l-6.246120929718018,-0.5646727234125137 m16.08155131340027,3.7022101879119873 l2.469504624605179,-2.2900107502937317 6.547971963882446,-5.994711518287659 l1.280529946088791,8.549872040748596 -0.36504756659269333,6.4176106452941895 m-38.95186901092529,-6.867380142211914 l-4.0657612681388855,-6.589947938919067 -2.392745614051819,-2.8161054849624634 l-0.8980980515480042,8.056889176368713 0.15419119969010353,6.936441659927368 m21.96955442428589,12.371044158935547 l-0.38847342133522034,-0.12393413111567497 -0.5122901871800423,0.7840550690889359 l0.4503052309155464,1.0913433879613876 1.1904995143413544,0.25179125368595123 l0.4888296499848366,-0.9206944704055786 -0.7032116502523422,-0.6920380890369415 l-0.7334046065807343,0.176150593906641 0.25884827598929405,1.0099006444215775 l1.3160638511180878,0.5028558522462845 0.37881597876548767,-0.5622128769755363 l-0.7297217845916748,-0.5348058417439461 -0.7505405694246292,0.21625934168696404 l0.21456284448504448,0.842876136302948 1.2855647504329681,0.30697811394929886 l3.0391979217529297,-0.25532621890306473 5.082916021347046,0.3506200388073921 l6.349055767059326,-0.20102303475141525 5.850915908813477,-0.9634850919246674 l1.1784408241510391,-0.4939684271812439 m-22.470273971557617,2.714814841747284 l11.414237022399902,2.8933310508728027 10.71095585823059,2.625066339969635 m-22.73531198501587,-4.661725461483002 l9.703497290611267,6.195055246353149 9.514740705490112,4.415803253650665 m-26.485962867736816,-15.82892894744873 l-13.515633344650269,-1.522660255432129 -10.40176510810852,-1.6942612826824188 m22.913599014282227,6.143519282341003 l-11.998209953308105,1.4347703754901886 -9.293107390403748,1.822289228439331 m21.71182632446289,-0.22399656474590302 l-10.851043462753296,4.646971225738525 -8.230802416801453,3.8587337732315063 m23.03375244140625,-21.325132846832275 l-0.4748166352510452,-0.0035360443871468306 -0.49056243151426315,0.9705103933811188 l0.8233728259801865,0.8501849323511124 0.6393051147460938,-0.06948280613869429 l0.2521192841231823,-1.1381026357412338 -0.767248347401619,-0.26070892810821533 m85.03283168189228,-12.277520430507138 l0.14511456713080406,0.1295728050172329 -2.3499973118305206,0.6469425559043884 l-4.556153118610382,1.1434674263000488 -3.600265383720398,1.437457799911499 l-3.497207462787628,2.0070958137512207 -3.3312463760375977,2.6635584235191345 l-2.682158648967743,2.965388000011444 -2.7839291095733643,4.924422204494476 l-0.7643568515777588,2.597632110118866 0.5750498920679092,10.259116888046265 l1.0547426342964172,2.1757307648658752 1.5061518549919128,1.879590004682541 l4.052265882492065,3.1670185923576355 5.990030765533447,2.8396058082580566 l6.702594757080078,1.7319081723690033 3.8363027572631836,0.4272327199578285 l8.303599953651428,0.0032969354651868343 4.367870092391968,-1.0352839529514313 l3.779323697090149,-1.7460700869560242 4.825358688831329,-3.6563456058502197 l3.533483147621155,-5.019214153289795 3.013378083705902,-11.798312664031982 l-0.14785039238631725,-4.968743026256561 -0.6433166563510895,-1.9643330574035645 l-4.156055152416229,-5.14835000038147 -3.5656964778900146,-2.2231927514076233 l-6.118999123573303,-2.2314482927322388 -10.070505142211914,-1.6209916770458221 m9.637739658355713,1.7483215034008026 l2.5337523221969604,-1.3158896565437317 7.868090271949768,-4.996923208236694 l-0.0487836729735136,8.237967491149902 -0.4916457086801529,4.587647318840027 m-31.269958019256592,-5.156908631324768 l-4.459468424320221,-5.278889536857605 -2.52290278673172,3.3680906891822815 l-0.6017080321907997,7.444894313812256 m16.64467692375183,11.170926094055176 l2.3438169062137604,0.23537004366517067 0.33548835664987564,0.8169723302125931 l-1.4452634751796722,0.6722632050514221 -0.6759614497423172,-0.37076693028211594 l0.36975253373384476,-1.3026031851768494 0.9108081459999084,-0.1971251703798771 l0.18849030137062073,0.8956350386142731 -0.9435142576694489,0.9194964170455933 l-0.7642316073179245,-0.6892672181129456 0.14477289281785488,-1.303558498620987 l0.8877378702163696,0.3499864414334297 -0.1583838276565075,0.8642616868019104 l-1.0987164825201035,0.779702216386795 -0.9139975905418396,-1.0322316735982895 l0.1938832923769951,-1.0815531015396118 0.9592990577220917,0.3818967938423157 l0.38943715393543243,0.6338422000408173 3.744749128818512,-0.33233772963285446 l7.484759092330933,0.3196117654442787 8.272390961647034,-0.10176340118050575 l7.377503514289856,-0.21148059517145157 4.112045466899872,0.06512833759188652 l1.44660085439682,0.31917866319417953 m-34.37779903411865,2.1980248391628265 l14.319542646408081,1.9030097126960754 12.090651988983154,2.2032099962234497 l9.331690669059753,1.9775624573230743 m-36.5222430229187,-4.6423423290252686 l13.755481243133545,6.06587827205658 10.530544519424438,3.9987072348594666 m-32.85036325454712,-16.540563106536865 l-12.17681884765625,-0.9654721617698669 -17.20061182975769,-2.387990355491638 m29.181833267211914,6.904134750366211 l-13.184278011322021,1.9415095448493958 -9.637362360954285,2.190186232328415 m23.58586072921753,-0.7588011771440506 l-10.91975212097168,5.321506857872009 -8.456816673278809,4.255616664886475 m26.28178358078003,-23.24868679046631 l0.15752488747239113,1.57574862241745 0.3174394369125366,1.5521498024463654 l0.6035793572664261,0.559159629046917 1.3819217681884766,-0.09894712828099728 l0.6371590495109558,-1.917797178030014 -0.8806630969047546,-1.2092360109090805 l-1.29285529255867,-0.43864086270332336 m78.54564000386745,-3.076541288755834 l0.26639459654688835,0.21557975560426712 -2.117592990398407,1.1142800003290176 l-4.329633414745331,1.5230056643486023 -3.4058409929275513,1.557939201593399 l-4.032062590122223,2.6802435517311096 -1.7534904181957245,1.6115972399711609 l-2.545492649078369,3.558320701122284 -0.9820041060447693,2.253333032131195 l-1.0619443655014038,6.527838110923767 1.299462616443634,5.666899085044861 l1.2098807096481323,1.9064010679721832 1.6379646956920624,1.5524649620056152 l10.043684244155884,4.404439628124237 3.416008949279785,0.6059831008315086 l7.582687139511108,0.10140523314476013 2.515762746334076,-0.40397126227617264 l4.7688522934913635,-1.572774201631546 4.919280111789703,-2.95685738325119 l2.6932215690612793,-2.743609845638275 4.564884603023529,-10.75223445892334 l-0.09839456528425217,-4.4168466329574585 -1.8419529497623444,-2.9740890860557556 l-3.9780595898628235,-3.547496497631073 -7.52008855342865,-4.094520807266235 l-6.371105909347534,-1.7501863837242126 -4.234756529331207,-0.34832779318094254 m-0.21594101563096046,11.816562414169312 l-0.050351424142718315,0.07165648974478245 0.36572009325027466,-0.18824376165866852 l0.3008977510035038,0.44584084302186966 -0.07179175969213247,0.5889540538191795 l-0.33651866018772125,-0.26712551712989807 0.11177994310855865,-0.4133167490363121 m-0.9736013412475586,-0.39730601012706757 l1.7709863185882568,-1.3309535384178162 7.141667604446411,-3.40084046125412 l9.53687310218811,-2.9398462176322937 4.899424612522125,-0.6909541040658951 m-21.015756130218506,9.137651920318604 l14.266419410705566,-0.6987860053777695 12.306015491485596,0.2099325880408287 m-27.016355991363525,2.338651716709137 l14.329907894134521,2.919875681400299 11.962484121322632,2.7833136916160583 m-32.82724857330322,-10.169059038162231 l-3.3708685636520386,-0.7578593492507935 -8.914974331855774,-1.2291956692934036 l-9.461379647254944,-0.9971524775028229 m20.72559356689453,5.2740877866744995 l-3.6453095078468323,0.3146978095173836 -8.32270860671997,1.4162197709083557 l-7.994817495346069,1.7656460404396057 m20.10899305343628,-1.4130540192127228 l-2.7195799350738525,0.9763352572917938 -6.637921333312988,3.1742680072784424 l-6.874893307685852,3.495686650276184 -3.760579824447632,1.002294272184372 m16.2800395488739,-21.799023151397705 l-0.5061905831098557,-0.43510496616363525 -2.123274803161621,-4.460048973560333 l-1.4129310846328735,-4.940733909606934 -0.5951389670372009,-4.784370064735413 l6.200151443481445,4.699047803878784 4.729117751121521,4.5456308126449585 m13.818638324737549,0.4676494747400284 l5.992838740348816,-5.872510075569153 3.5068583488464355,-2.5096917152404785 l0.5181377753615379,0.564027726650238 0.32039184123277664,3.4959805011749268 l-0.6151064112782478,6.6172415018081665 0.2209654077887535,3.967449367046356 m-19.642903804779053,10.33976435661316 l0.3880644589662552,0.3881721943616867 0.11010008864104748,-0.8918660879135132 l-0.18198519945144653,-0.6379013508558273 -0.29117925092577934,0.36203134804964066 l0.40434036403894424,0.8044609427452087 0.5508583039045334,-0.1450048852711916 l-0.3886416554450989,-0.6730782985687256 -0.41786476969718933,0.1982581615447998 m79.30726541322656,-10.523736566537991 l0.3447442874312401,0.28520427644252777 -1.891775131225586,1.5945212543010712 l-3.7583252787590027,1.7634087800979614 -2.916918098926544,1.5087810158729553 l-3.6488038301467896,2.47406542301178 -1.5079139173030853,1.445872038602829 l-2.0964187383651733,3.1872928142547607 -0.6898513436317444,2.04799547791481 l0.7915168255567551,8.560009002685547 0.9996438771486282,1.767074316740036 l1.5151366591453552,1.5964621305465698 3.912731111049652,2.3560702800750732 l2.903546690940857,0.9924347698688507 12.880167961120605,1.542561650276184 l2.3715102672576904,-0.26930201798677444 2.7250906825065613,-1.0258474946022034 l3.786698579788208,-2.7582907676696777 2.2923997044563293,-2.807515561580658 l3.0463993549346924,-7.252672910690308 0.15433206222951412,-5.167016983032227 l-1.2207646667957306,-2.954018712043762 -3.2166659832000732,-3.753015100955963 l-4.588953256607056,-2.932475209236145 -5.359792709350586,-1.8204601109027863 m-6.9162023067474365,11.550136804580688 l0.35474177449941635,0.3974517807364464 0.4609353840351105,-0.10284820571541786 l0.2957828529179096,0.03872062545269728 -0.061809467151761055,0.5271049588918686 l-0.2942458540201187,0.49085743725299835 -0.05329255014657974,0.17430732026696205 l0.22909410297870636,-0.609658993780613 0.1292507816106081,-0.05203467793762684 l-0.165178794413805,0.6734516471624374 0.01562350313179195,0.37088867276906967 l1.4124330878257751,-0.4020995646715164 -0.6492754817008972,-0.02330352319404483 l-0.5106835439801216,0.04958661738783121 3.0574852228164673,-0.387626513838768 l-1.1160876601934433,0.3358244150876999 -0.8965068310499191,0.09960705414414406 l-1.1511538922786713,-0.2609451487660408 -0.0925131980329752,-0.20809542387723923 l4.995447099208832,-0.5209368094801903 9.712234139442444,-0.5732642486691475 l8.310512900352478,-0.1922670565545559 6.631191372871399,0.3898885101079941 l1.1308812350034714,0.4315843805670738 m-34.14360284805298,1.894969791173935 l15.876573324203491,1.3489173352718353 11.640160083770752,1.7305871844291687 m-28.62717628479004,-2.5309014320373535 l14.202065467834473,4.418395757675171 10.587741136550903,3.238958418369293 m-27.021355628967285,-11.258544921875 l-13.607187271118164,-1.8675516545772552 -10.867537260055542,-1.4132794737815857 m24.33969736099243,5.448816418647766 l-12.75792121887207,1.4814609289169312 -9.360483884811401,1.8519943952560425 m23.237972259521484,-1.6645216941833496 l-10.672881603240967,4.756555557250977 -7.708256840705872,3.8583609461784363 m17.34302520751953,-22.110116481781006 l-0.8318000286817551,-0.4221891239285469 -3.6588725447654724,-3.1820306181907654 l-3.290572464466095,-3.2320204377174377 -2.89140522480011,-3.6362603306770325 l-2.2982582449913025,-3.521210253238678 0.013567181304097176,2.6744285225868225 l2.6454564929008484,11.148440837860107 0.6278407573699951,4.98333066701889 m25.411231517791748,-6.083359718322754 l2.4191805720329285,-3.6127784848213196 5.041584372520447,-6.429211497306824 l1.4436988532543182,7.987129092216492 0.3300081565976143,7.026671767234802 m56.04706619866192,-7.241871770238504 l0.38861699402332306,0.29899224638938904 -1.6393046081066132,2.064211666584015 l-3.3956697583198547,1.9627761840820312 -3.010983467102051,2.0123249292373657 l-1.3376231491565704,1.0820702463388443 -1.93581223487854,2.0735131204128265 l-1.7980386316776276,3.5259416699409485 -0.24531716480851173,1.8737779557704926 l2.7130529284477234,6.352034211158752 1.4790411293506622,1.4350417256355286 l1.8834100663661957,1.0390280932188034 8.716152906417847,2.1882127225399017 l3.0004483461380005,-0.04329440649598837 2.825663387775421,-0.692329928278923 l2.6381152868270874,-1.2484042346477509 4.375717639923096,-3.3037590980529785 l2.012195736169815,-2.7922487258911133 1.5479826927185059,-9.649142622947693 l-2.13760644197464,-3.2118400931358337 -2.2031070291996,-1.7142610251903534 l-4.396294951438904,-1.8968908488750458 -5.319322347640991,-0.9986118972301483 l-5.672605633735657,-0.01673863735049963 m5.914103984832764,12.213321924209595 l3.1493541598320007,0.05412070080637932 7.283327579498291,-0.45297008007764816 l12.379865646362305,-0.68558469414711 6.128334403038025,-0.059138303622603416 m-28.516006469726562,3.5310962796211243 l4.500857293605804,0.5053276568651199 9.646826982498169,2.369426190853119 l8.829536437988281,2.445153146982193 m-23.207895755767822,-4.35679167509079 l2.7355247735977173,1.7738541960716248 7.412644624710083,4.401399493217468 l7.007097601890564,4.127550423145294 m-25.192906856536865,-14.868934154510498 l-2.6730844378471375,-0.5273064970970154 -8.046469688415527,-1.005365028977394 l-7.995208501815796,-0.4834846034646034 m18.661112785339355,4.23717737197876 l-3.652898669242859,0.36606039851903915 -8.126551508903503,1.7427407205104828 l-6.390842795372009,1.6718928515911102 m18.634802103042603,-1.31149023771286 l-8.943594098091125,4.356901943683624 -6.7324769496917725,3.7540477514266968 m14.580552577972412,-17.208056449890137 l-0.555984228849411,0.08130150847136974 -0.10671081021428108,0.06236872635781765 l0.575990229845047,-0.2554614096879959 -0.26483897119760513,-0.2956808917224407 l-0.2005045861005783,0.4216572269797325 0.3690788522362709,0.06107474211603403 l0.021101573947817087,-0.47878071665763855 m9.256479144096375,0.08473150432109833 l-0.3594762459397316,0.689653754234314 0.7418611645698547,-0.12101531960070133 l-0.042657749727368355,-0.6818915158510208 -0.4938441514968872,0.08741958998143673 m-3.13780814409256,1.9615170359611511 l-0.20331233739852905,1.6017647087574005 0.01983659341931343,1.0012000799179077 l0.5166895315051079,0.8384134620428085 1.2358927726745605,0.6518078595399857 l0.6504072993993759,-0.9795813262462616 -0.023556703235954046,-1.4606407284736633 l-0.4700767993927002,-0.7734081894159317 m-0.5401907861232758,-5.009540319442749 l4.036620259284973,-3.517024517059326 6.571028232574463,-4.632494747638702 l0.6012672558426857,5.933391451835632 -0.41867218911647797,5.508939623832703 m-18.076765537261963,-5.361785292625427 l-4.9614036083221436,-4.847712218761444 -1.0766398161649704,-0.6898374855518341 l-0.11551773175597191,5.8102792501449585 0.39704330265522003,4.477801024913788 m91.51522486587055,-2.855360744288191 l0.3890232741832733,0.2994103543460369 -1.3774418830871582,2.555205821990967 l-2.759450078010559,2.111848294734955 -1.3737423717975616,0.9650100022554398 l-2.2288240492343903,1.4943709969520569 -2.292076349258423,1.986061930656433 l-0.6495040655136108,1.6385330259799957 0.5355799570679665,3.895597755908966 l1.1122816056013107,1.4839279651641846 6.8642401695251465,3.745688498020172 l2.12809294462204,0.28852101415395737 3.641178607940674,0.00760575698222965 l3.745059370994568,-1.1073288321495056 3.3855637907981873,-2.421364486217499 l1.5537860989570618,-2.3384977877140045 1.1165597289800644,-4.283253848552704 l-0.014663400361314416,-4.549305737018585 -2.6313644647598267,-3.9146754145622253 l-4.1200509667396545,-1.5448346734046936 -5.9291064739227295,-0.0549624627456069 m3.1417420506477356,9.572603106498718 l0.3072796016931534,0.04177002236247063 2.7193573117256165,0.08828768506646156 l-0.5631081387400627,0.6132764369249344 -1.7644639313220978,0.5096079409122467 l-0.3586394339799881,-0.8863884955644608 0.3002295643091202,-0.654471293091774 m1.0486767441034317,-1.0430219024419785 l4.7592490911483765,-1.2696412205696106 8.692653179168701,-2.220608741044998 m-12.687759399414062,4.287394881248474 l2.9990828037261963,0.09711766615509987 7.754464149475098,0.189236830919981 l3.7205469608306885,0.2501753158867359 m-15.732580423355103,1.0293029993772507 l3.37723046541214,0.7234606891870499 7.639948725700378,2.72582471370697 l3.118024468421936,0.5136548727750778 m-16.597778797149658,-5.0420451164245605 l-9.037777781486511,-0.8389569818973541 -3.6770132184028625,-1.259588748216629 m12.732813358306885,3.071660101413727 l-3.2792988419532776,0.5488255992531776 -6.65917694568634,1.794103980064392 l-5.6947267055511475,1.605425775051117 m15.57974100112915,-3.2508987188339233 l-6.913973093032837,4.379677474498749 -5.841793417930603,3.6823636293411255 m11.900186538696289,-16.35040283203125 l-0.6341539323329926,-0.26921408250927925 -0.4892677813768387,-0.19681334495544434 l-0.1163867861032486,-0.45413460582494736 1.1466151475906372,-0.6484971940517426 l0.49007460474967957,0.8125154674053192 -0.4584919288754463,0.021327019203454256 l-0.08558752946555614,-0.5699245259165764 0.44062312692403793,-0.43425537645816803 l-0.03888918785378337,0.6711269170045853 -0.5239893868565559,0.06913132965564728 m7.7650099992752075,0.42422764003276825 l0.466008260846138,-0.28718767687678337 0.7464881986379623,0.019330891082063317 l-0.041174571961164474,0.4916539415717125 -0.6069562211632729,-0.07443019188940525 l-0.12588756158947945,-0.5753505229949951 0.3089436702430248,0.134279141202569 m-5.474168658256531,-0.2949913591146469 l0.19790926948189735,-3.3432281017303467 1.4477041363716125,-5.144820213317871 l2.503010928630829,5.134814977645874 1.582580804824829,2.783379554748535 m-6.734206676483154,1.9904632866382599 l-3.694990873336792,-4.136119186878204 -2.4957187473773956,-0.6480371952056885 l-0.0866288784891367,4.00322288274765 1.164032518863678,3.1152814626693726 m83.38397281942889,-9.839048669091426 l0.35398077219724655,0.2656799927353859 -1.113179326057434,3.0073529481887817 l-2.272207587957382,1.9481195509433746 -1.3761425018310547,-0.4539299011230469 l-1.1710675060749054,-1.2089012563228607 -1.0279704630374908,0.15963036566972733 l-1.6575677692890167,4.543815553188324 0.4479638859629631,3.037613034248352 l2.103952318429947,2.5614237785339355 1.5436433255672455,0.9542752057313919 l6.561096906661987,1.1431585997343063 2.6022374629974365,-0.03938996698707342 l2.1314845979213715,-0.743880420923233 2.7506697177886963,-2.395850718021393 l1.2669029831886292,-2.283692806959152 0.2902727946639061,-4.285241961479187 l-1.7227953672409058,-3.3292537927627563 -1.5347859263420105,-1.1564669013023376 l-3.460824489593506,0.33289916813373566 -5.147411823272705,0.073511628434062 m5.117095708847046,8.119445443153381 l4.575096964836121,0.2390495501458645 9.207153916358948,-0.1715674251317978 l6.566362380981445,0.49275659024715424 m-20.137596130371094,1.3782018423080444 l3.3222180604934692,0.6817759573459625 7.923192977905273,2.669014036655426 l3.224674165248871,0.537353977560997 m-15.246349573135376,-3.329595625400543 l2.67475426197052,1.4777256548404694 6.197595000267029,3.995007574558258 l2.4653348326683044,1.0072874277830124 m-18.096860647201538,-9.132041335105896 l-2.1396343410015106,-0.20298808813095093 -6.730780601501465,0.09182455949485302 l-6.746959686279297,0.8469919115304947 -2.558531165122986,0.807393416762352 m18.43921422958374,0.3435947000980377 l-2.8291839361190796,0.5291378125548363 -6.522834300994873,2.395138144493103 l-2.9877883195877075,1.6537946462631226 -0.9066986292600632,0.9628120809793472 m15.645970106124878,-3.79659503698349 l-2.2972024977207184,0.9422416985034943 -4.981848299503326,3.521305024623871 l-4.133578240871429,3.6247408390045166 m11.001676321029663,-15.824174880981445 l-0.3365148976445198,-0.06338322535157204 0.01853738445788622,0.05465117283165455 l0.009117820300161839,-0.2883658744394779 0.14331361278891563,0.28500868007540703 l0.3354605659842491,0.38798030465841293 m5.810323357582092,-0.5727744847536087 l-0.08184833452105522,0.7171853631734848 0.6339211016893387,-0.5164851620793343 l-0.294337198138237,0.049462802708148956 m-1.9135166704654694,2.5736039876937866 l3.32428902387619,-1.0576622188091278 6.403118371963501,-1.6618838906288147 l2.631019949913025,-0.8105913549661636 4.041684567928314,-1.256643533706665 m-16.65511965751648,6.427252292633057 l3.4814906120300293,0.1273617148399353 9.25342321395874,2.0598596334457397 l3.9444905519485474,0.20842429250478745 m-20.382425785064697,-5.049689412117004 l-0.4186813533306122,0.001253102527698502 -1.3016341626644135,0.4498596116900444 l-3.935510516166687,2.433408349752426 -1.667187660932541,1.85811847448349 m62.55843499675393,3.085321692196885 l0.27298400178551674,0.22496579214930534 -0.7496519386768341,3.3324339985847473 l-1.7403987050056458,1.4386673271656036 -0.8007606118917465,-0.8403924852609634 l-0.7533698529005051,-1.448974460363388 -0.10795200243592262,-0.39779793471097946 l1.6469806432724,3.434131443500519 1.1626403033733368,1.894703209400177 l2.197631597518921,1.2292636930942535 4.272783100605011,-0.021979135926812887 l3.3637046813964844,-4.641714096069336 0.9079660475254059,0.4277920350432396 l1.011091098189354,0.9969637542963028 0.5641361698508263,1.4273497462272644 l-0.9879891574382782,2.9130685329437256 -1.877901554107666,1.6953973472118378 l-3.465019166469574,1.0340402275323868 -4.0008339285850525,0.06538225803524256 l-2.5146886706352234,-3.023791015148163 -0.7972332090139389,-3.6002466082572937 l0.2933353930711746,-2.5084909796714783 m6.167410612106323,5.711343884468079 l1.3636398315429688,0.6412880122661591 0.5612434446811676,-0.43348278850317 l0.6304777413606644,-0.3333204612135887 2.463897317647934,-0.2851235494017601 m-2.2821852564811707,-2.7795684337615967 l5.369547009468079,-1.593823879957199 m-4.943408966064453,2.36425444483757 l2.435014098882675,0.17923474311828613 3.5449960827827454,-0.061742295511066914 m-10.449724197387695,0.0610141409561038 l-5.07914125919342,-0.2815564163029194 -2.321663051843643,0.3526381775736809 m7.540509104728699,1.1322883516550064 l-2.4107325077056885,0.4452061280608177 -4.455094933509827,1.8460142612457275 m9.176748991012573,-3.14449280500412 l1.8513467907905579,1.0503284633159637 2.2106991708278656,0.12294457294046879 l2.1094173192977905,-0.7079221308231354 1.8484348058700562,-1.3915573060512543 l1.24831922352314,-1.5534712374210358 0.9425769001245499,-1.6343730688095093 l0.7406651973724365,-1.5771520137786865 0.7041997462511063,-1.4927858114242554 l0.7847632467746735,-1.3941076397895813 2.888474762439728,-3.2440951466560364 l2.1435274183750153,-1.5940842032432556 2.141822725534439,-0.9262699633836746 l2.3405735194683075,-0.4294005408883095 2.743004560470581,0.16045056283473969 l4.437955617904663,1.6193175315856934 2.4792806804180145,1.9670142233371735 l1.3834869861602783,2.1654878556728363 0.5413252115249634,2.3096863925457 l-0.5230298265814781,3.619065284729004 -2.4944089353084564,3.9352500438690186 l-3.771667182445526,3.130592703819275 -5.365011096000671,2.1360816061496735 l-6.136991381645203,0.6334242224693298 -2.6029735803604126,-0.31350743025541306 l-3.921845853328705,-1.5176525712013245 -1.5794825553894043,-1.0340458154678345 l-1.6456805169582367,-2.2902175784111023 -0.4326863959431648,-1.2958481907844543 l0.23316284641623497,-0.7201925665140152 m25.338075160980225,-3.5469159483909607 l4.873369336128235,-2.677140235900879 2.4212099611759186,-2.2180360555648804 l2.3893116414546967,-3.1470561027526855 1.832764446735382,-3.673970401287079 l1.100727841258049,-3.6831068992614746 0.6380759924650192,-3.3711421489715576 l0.3343440592288971,-3.468557894229889 0.19944705069065094,-1.3018491864204407 l0.5811379849910736,-1.61710724234581 1.0520244389772415,-1.133587509393692 l1.479203850030899,-0.5654241144657135 1.8988534808158875,0.19608359783887863 l1.8093377351760864,1.2228961288928986 1.2865184247493744,2.040162980556488 l0.5275918915867805,2.4457669258117676 -0.26221511885523796,4.05326783657074 l-1.088879257440567,2.71857351064682 -2.2271892428398132,3.3456894755363464 l-2.309526801109314,2.0806165039539337 -5.99450409412384,3.7031331658363342 l-3.429276943206787,4.087839722633362 m44.3375435937196,-17.61955486377701 l0.16247250139713287,0.15317661687731743 -0.33356379717588425,3.5816678404808044 l-1.0502559691667557,0.9296771883964539 -0.7862503826618195,0.10621821507811546 l0.4628179967403412,-0.907556414604187 3.565768003463745,-2.1599827706813812 l0.8318264037370682,1.1489719897508621 1.1643248796463013,1.8402092158794403 l2.4932394921779633,-3.0806973576545715 0.8073132485151291,2.6686829328536987 l0.3377864882349968,2.2581814229488373 -0.7178772985935211,2.540333569049835 l-2.4628908932209015,1.487601101398468 -2.4901247024536133,0.2840735763311386 l-1.8135572969913483,-0.30793074518442154 -2.3962831497192383,-1.6078391671180725 l-1.2944956123828888,-3.534257411956787 0.2862173691391945,-2.5930532813072205 l0.6648637354373932,-0.765819326043129 m4.850745499134064,5.385246276855469 l0.6673067063093185,0.557560957968235 0.5872758850455284,0.8281082659959793 l1.6184347867965698,0.14831994660198689 1.6130124032497406,-0.8358780294656754 l0.5236118659377098,-0.8456286787986755 m-1.888083666563034,-2.8054818511009216 l4.564749300479889,-0.7639947533607483 3.4406468272209167,-0.6565521657466888 m-7.081586122512817,2.6671329140663147 l2.364947646856308,0.2858247049152851 4.455574452877045,0.5000725388526917 m-11.938867568969727,-1.0755392163991928 l-5.270866751670837,-0.13452907092869282 -2.184247672557831,0.37154022604227066 m7.739095091819763,1.2396641820669174 l-2.7467364072799683,0.45511920005083084 -4.7276464104652405,2.197970300912857 m10.598772764205933,-5.038084983825684 l-0.4793335497379303,0.07496882695704699 0.16324682161211967,0.4528217390179634 l0.11316248215734959,-0.18895223736763 -0.2095278538763523,-0.15679055824875832 l-0.2214619517326355,0.22306280210614204 0.2312001772224903,0.41757915169000626 l0.2511008642613888,-0.44659413397312164 -0.3281610459089279,-0.1484556868672371 l-0.2914554812014103,0.35506095737218857 0.28815489262342453,0.4367855191230774 l0.2373533509671688,-0.21958712488412857 -0.39744552224874496,-0.22559689357876778 l-0.3707367554306984,0.19661763682961464 0.11251639574766159,0.5063813924789429 l0.18065709620714188,-0.20073411986231804 0.11953593231737614,0.1128836628049612 l0.1395868230611086,0.43811511248350143 0.13020498678088188,0.46365179121494293 l0.014837896451354027,0.18282296136021614 -0.462421290576458,-0.39201822131872177 m2.0495596528053284,-2.1598221361637115 l7.6646095514297485,-2.6042890548706055 5.472073554992676,-0.8994610607624054 l6.596096754074097,-0.34171681851148605 6.505307555198669,0.6999196112155914 l5.523610711097717,1.800706386566162 4.894736111164093,2.8265368938446045 l1.795409470796585,2.1450701355934143 0.720517486333847,2.246766984462738 l-0.10350391268730164,2.3780058324337006 -1.6998179256916046,3.3353406190872192 l-1.5640337765216827,1.4376327395439148 -4.179904460906982,1.9539225101470947 l-6.801539063453674,1.318681687116623 -7.564578652381897,0.1878080889582634 l-7.020623683929443,-0.9649012982845306 -4.209155440330505,-1.4306293427944183 l-4.663020670413971,-2.7809110283851624 -3.3814632892608643,-3.4467563033103943 l-1.4579898118972778,-2.6200321316719055 -0.6280038505792618,-3.6869394779205322 m83.354746697878,2.272487316513434 l0.055460790172219276,0.04124348517507315 0.14545971527695656,3.7085911631584167 l-0.43733809143304825,0.547824539244175 0.8439578115940094,-0.6857534497976303 l1.9814157485961914,-3.661149740219116 0.2857336401939392,2.2978977859020233 l1.142701506614685,1.2057022005319595 1.1046640574932098,0.5691778659820557 l1.750941127538681,0.4735005646944046 1.0935486108064651,-0.09030106477439404 l0.20151374861598015,-1.0851237177848816 -1.3135434687137604,-1.2934444844722748 l-1.9770878553390503,-0.9385991841554642 -1.8375152349472046,-0.43528228998184204 l-1.4161871373653412,0.10237281210720539 -0.7055430859327316,0.5981945991516113 m3.6225345730781555,3.229663372039795 l1.5323923528194427,1.15412637591362 2.407001703977585,0.5551120266318321 l3.50799560546875,-0.33729780465364456 2.2514426708221436,-0.8666000515222549 l1.4867179095745087,-1.0109738260507584 0.8718344569206238,-1.1286838352680206 l0.2607620134949684,-1.2112651765346527 -0.4481618106365204,-1.245800033211708 l-2.343999892473221,-1.7004768550395966 -1.76749587059021,-0.40479719638824463 l-3.070302903652191,0.2517692558467388 -1.4725792407989502,0.9303783625364304 m-0.44818900525569916,7.988381385803223 l-0.19973360002040863,3.4202516078948975 -0.45458845794200897,2.000345140695572 l-0.061670104041695595,0.4754169285297394 0.3895692527294159,-0.1635235920548439 l0.9910920262336731,-1.249184012413025 0.4368898645043373,-2.5858792662620544 l0.35846132785081863,-0.7673832774162292 m4.524126350879669,-0.8045891672372818 l-0.005632216925732791,3.383406400680542 0.31829770654439926,0.9553131461143494 l1.1755064129829407,0.17682991921901703 0.6899887323379517,-2.255401909351349 l-0.210720244795084,-2.7990752458572388 m2.5597795844078064,-0.8425533026456833 l1.4009684324264526,2.7103346586227417 1.2165197730064392,0.9214434772729874 l0.53281519562006,-0.039026986341923475 0.17203442752361298,-1.0717999190092087 l-0.4738498106598854,-1.9609072804450989 -0.8164472132921219,-1.0654635727405548 m0.24310525506734848,-1.4194776117801666 l4.450676739215851,-1.748540997505188 2.158687561750412,-1.8474426865577698 l1.4747236669063568,-2.8490477800369263 0.3750145807862282,-3.8555291295051575 l-0.31279604882001877,-1.256282925605774 -1.2806640565395355,-1.5578457713127136 l-0.48234723508358,-0.40215276181697845 -0.46981409192085266,0.031331528443843126 l-0.45293327420949936,1.219690516591072 0.11861640028655529,2.278324067592621 l0.11183278635144234,2.521020472049713 -0.36092836409807205,2.5144988298416138 l-1.3332363963127136,2.3242339491844177 -2.5849905610084534,1.7843760550022125 l-3.671869933605194,0.7311229407787323 m-11.756976842880249,-7.281852960586548 l0.7285096496343613,-0.6223221123218536 m2.9681408405303955,0.2139037474989891 l-0.004449325206223875,0.006886834744364023 m-4.340945780277252,1.6860482096672058 l1.276363879442215,0.4293273016810417 " fill="none" stroke="black" stroke-width="1"/></svg>