<?xml version="1.0" encoding="utf-8" ?>
<svg baseProfile="full" height="110.84453576419037" version="1.1" width="844.2938806675375" xmlns="http://www.w3.org/2000/svg" xmlns:ev="http://www.w3.org/2001/xml-events" xmlns:xlink="http://www.w3.org/1999/xlink"><defs /><rect fill="white" height="110.84453576419037" width="844.2938806675375" x="0" y="0" /><path d="M25,31.18332069920143 m0.0,0.0 m21.480154460296035,20.71002681273967 l-2.012360244989395,0.53466796875 -1.1700206249952316,2.124667912721634 l-0.25125207379460335,3.0379489064216614 0.6311741471290588,4.983985424041748 l1.3342520594596863,2.9997166991233826 1.285509318113327,1.379200965166092 l1.7680434882640839,0.5771263316273689 1.5266399085521698,-0.3065933287143707 l2.2988642752170563,-3.8898542523384094 0.3082720935344696,-3.7146231532096863 l-0.6672241538763046,-2.8465884923934937 -1.0841511189937592,-2.0261885225772858 l-1.434173434972763,-1.5506595373153687 -2.1938857436180115,-1.1502622067928314 l-1.715427190065384,-0.2894490398466587 -0.7802062481641769,0.44693879783153534 m-1.391880065202713,3.4908798336982727 l-0.3533788397908211,-5.624720454216003 -0.17318235710263252,-4.420191943645477 l2.3049478232860565,4.474253952503204 1.7676128447055817,2.6122093200683594 m1.5341097116470337,-0.15058540739119053 l3.1158557534217834,-6.866387724876404 0.3341493383049965,8.159390687942505 m-4.497625827789307,7.447426915168762 l0.16630850732326508,-0.31861182302236557 0.30702032148838043,-0.08205274119973183 l-0.10648669674992561,0.2448088675737381 -0.1985374093055725,0.1708422414958477 l0.09312308393418789,-0.1062809769064188 m0.2187696285545826,-0.376017689704895 l2.1515673398971558,-1.5700015425682068 5.501911640167236,-2.917802631855011 m-7.098983526229858,4.972776770591736 l5.713099241256714,-0.3878921642899513 3.338445723056793,-0.5216476693749428 m-9.307311773300171,1.2606653571128845 l-5.493863821029663,-0.9662402421236038 -3.95811527967453,-0.6932647526264191 m9.714527130126953,2.456883490085602 l-2.618430256843567,-0.0351553107611835 -5.450173020362854,1.5605832636356354 l-2.318601906299591,1.3146817684173584 m7.990760803222656,-2.2728000581264496 l-0.24800477549433708,0.4227524995803833 -0.15750035643577576,1.5634389221668243 l0.25607774034142494,5.552346110343933 0.42116299271583557,2.4520814418792725 l1.0483139008283615,2.761516273021698 2.1818143129348755,2.9470133781433105 l3.3182942867279053,2.158489227294922 4.1762155294418335,0.8487458527088165 l4.932582974433899,-0.564238466322422 2.82861590385437,-1.566949486732483 l1.8654277920722961,-2.25601464509964 0.9938140958547592,-2.805507481098175 l0.18182817846536636,-3.2130825519561768 -0.700102373957634,-3.057456612586975 l-1.5529102087020874,-2.7820828557014465 -2.3289699852466583,-2.20439612865448 l-2.9798251390457153,-1.5171916782855988 -3.3218011260032654,-0.7589814811944962 l-4.661888480186462,0.055046011693775654 -1.9611990451812744,0.8177517354488373 m16.551527976989746,6.676759719848633 l0.9008996188640594,-0.8544613420963287 3.5987231135368347,-3.4565147757530212 l3.2825180888175964,-3.139278292655945 2.750425636768341,-2.955288887023926 l2.186140865087509,-2.7897420525550842 1.809353530406952,-2.9014548659324646 l1.3540065288543701,-2.7768301963806152 1.1211470514535904,-2.9299700260162354 l1.0455690324306488,-3.2098767161369324 0.7845593243837357,-3.2713913917541504 l0.4550381377339363,-3.233635127544403 -0.09615480899810791,-3.220067024230957 l0.19322004169225693,-0.9429488331079483 0.8014513552188873,-0.8902806043624878 l1.2809404730796814,-0.3469686582684517 0.4350340738892555,1.8261785805225372 l-0.5949662253260612,4.568974077701569 -1.556364893913269,3.5257336497306824 l-2.4477456510066986,3.782329559326172 -4.993742108345032,6.142945289611816 l-2.970585823059082,5.412415266036987 -2.1522338688373566,4.296622574329376 l-2.17750146985054,3.3929693698883057 -0.7899186015129089,1.5898779034614563 l-1.2457823753356934,1.7107032239437103 -2.1565695106983185,1.6726814210414886 l-2.941943109035492,1.100446805357933 m-13.347775936126709,0.16313955187797546 l-0.45198626816272736,4.015776216983795 -1.0844681411981583,3.173021078109741 l-0.4899563640356064,1.245664730668068 -0.6010403111577034,0.8741582185029984 l-0.18769865855574608,0.5395437404513359 0.45288342982530594,0.09966869838535786 l1.2741971015930176,-0.7746721804141998 1.68203666806221,-2.135050445795059 l1.068018227815628,-2.5147193670272827 m76.32830257993191,-25.205556706205243 l-1.856740415096283,-0.09237077087163925 -1.3524393737316132,1.2395602464675903 l-0.5332756415009499,2.6345565915107727 0.15820443630218506,5.38560152053833 l1.2597881257534027,3.876354694366455 1.4285294711589813,1.9350889325141907 l1.8467798829078674,0.8501268923282623 2.1658894419670105,0.001772334799170494 l2.105272263288498,-1.9558554887771606 1.460200548171997,-3.4447306394577026 l0.1321187149733305,-4.2552489042282104 -0.9857270866632462,-2.812184691429138 l-1.9559982419013977,-2.5143131613731384 -1.8182642757892609,-1.250932365655899 l-2.499416619539261,-0.5500565096735954 -1.0927187651395798,0.32705124467611313 l-0.5978001281619072,0.8654965460300446 m-1.9540292024612427,2.9020661115646362 l-0.06895467173308134,-6.0233718156814575 -0.08276470936834812,-4.924871921539307 l2.5981011986732483,5.18834114074707 1.1025889962911606,1.2960252165794373 m2.8479138016700745,0.8502795547246933 l3.1842443346977234,-6.912522912025452 0.254877544939518,8.013911247253418 m-5.630574822425842,7.680819630622864 l0.323537178337574,-0.3073466569185257 0.3134673461318016,-0.07670247461646795 l-0.13525882735848427,0.5060054734349251 -0.6868766993284225,-0.15033438801765442 l0.28876472264528275,-0.2890910767018795 m0.1600276678800583,0.13496415689587593 l1.7379207909107208,-1.6762541234493256 4.639474153518677,-2.7793991565704346 m-6.269954442977905,4.63623434305191 l1.7995485663414001,-0.40755946189165115 4.517856240272522,-0.896713137626648 l3.6887845396995544,-0.2579982206225395 m-9.404314160346985,2.2988417744636536 l2.0553994178771973,-0.11813000775873661 5.637006759643555,0.09928004816174507 l1.8840990960597992,0.5562309548258781 m-9.92626667022705,-1.0758555680513382 l-6.739888787269592,-1.482594609260559 -4.287028610706329,-0.29738500714302063 m11.438382863998413,2.4955418705940247 l-2.8351885080337524,-0.0887025985866785 -5.738104581832886,1.6558346152305603 l-2.4957047402858734,1.4368364214897156 -1.687898188829422,1.6761888563632965 m12.894431352615356,-4.717470109462738 l-1.684524416923523,0.016337112756446004 -7.121900320053101,4.489633738994598 l-2.359144389629364,2.411990463733673 -1.3289004564285278,2.2082559764385223 m11.374143362045288,-8.808922171592712 l1.0441268235445023,-0.17089232802391052 6.24441921710968,-0.7251602411270142 l3.98851215839386,-0.03942342009395361 4.956375062465668,1.113627478480339 l3.021900951862335,1.577463150024414 2.090589851140976,1.9653898477554321 l1.2899671494960785,2.328515350818634 0.43697211891412735,2.5076594948768616 l-0.3686312213540077,2.2503699362277985 -1.2088146805763245,2.005802243947983 l-1.8833903968334198,1.6842234134674072 -4.2708563804626465,1.8945571780204773 l-3.6966481804847717,0.7365415245294571 -5.576292872428894,-0.00446463207481429 l-5.702891945838928,-1.4647990465164185 -3.2972386479377747,-1.7032799124717712 l-2.145434319972992,-1.9470696151256561 -1.3350406289100647,-2.335900366306305 l-0.5610167235136032,-2.5950348377227783 0.20619342103600502,-2.50850111246109 l1.1585358530282974,-2.053266614675522 m28.433279991149902,2.563622295856476 l1.648424118757248,-0.9318005293607712 1.7024771869182587,-1.7669373750686646 l3.041493594646454,-5.485332012176514 1.3501711189746857,-4.529514908790588 l0.5302820727229118,-4.366530776023865 -0.20683132112026215,-3.8946744799613953 l-1.026904657483101,-3.6566615104675293 0.20194917917251587,-1.3864122331142426 l1.657460778951645,-1.9943977892398834 2.206735908985138,-1.0858122259378433 l2.156081348657608,-0.2799263782799244 1.9403405487537384,0.6349501758813858 l0.9780597686767578,0.9853316098451614 0.6707721948623657,1.8248043954372406 l0.1074017770588398,2.627537250518799 -1.067371889948845,4.410811960697174 l-1.6280589997768402,3.210524618625641 -4.390649199485779,5.931524038314819 l-2.504391372203827,5.762866735458374 -1.6547302901744843,4.853335618972778 l-1.9169685244560242,3.681820034980774 m44.28981633391231,-30.318319453654112 l-1.6559110581874847,-0.761052817106247 -1.5515124797821045,0.22855781018733978 l-0.7081133872270584,1.5735119581222534 -0.42600009590387344,6.352756023406982 l0.9101980924606323,4.164236783981323 1.5989714860916138,2.843794822692871 l1.2409957498311996,0.9772957861423492 2.849183678627014,0.5110744386911392 l2.703368365764618,-1.0126931220293045 2.0531578361988068,-2.5947535037994385 l0.962924137711525,-2.8441566228866577 0.10133112780749798,-4.799365997314453 l-1.1896825581789017,-2.7821505069732666 -1.6174893081188202,-1.9181323051452637 l-3.0366450548171997,-1.7428062856197357 -3.2793018221855164,-0.3324110805988312 l-1.1591120809316635,0.5685082450509071 m-2.668493092060089,3.164147436618805 l-0.010923801455646753,-5.174184441566467 -0.1642608642578125,-4.725390076637268 l2.4183356761932373,3.2700854539871216 2.3278875648975372,2.8975909948349 m3.222147226333618,0.33353570848703384 l3.8138464093208313,-6.0047948360443115 0.32979678362607956,7.055371999740601 l0.2178308553993702,3.1570425629615784 m-8.79738450050354,2.095421254634857 l-0.39406854659318924,0.1428633090108633 0.1403820887207985,0.7689646631479263 l0.9957583993673325,0.06344631314277649 0.16777774319052696,-0.8317836374044418 l-0.7174371927976608,-0.20182600244879723 m5.010538101196289,-0.11993367224931717 l-0.2745847962796688,0.7469499856233597 0.9253276139497757,-0.01704557449556887 l0.04337322898209095,-0.6483615189790726 -0.8027152717113495,-0.007596525829285383 m-3.2970809936523438,6.328511834144592 l1.5412631630897522,-0.07988093420863152 0.6891923397779465,0.05898985080420971 l0.7413621246814728,0.2868516743183136 0.43017908930778503,0.0013193811173550785 m0.806691125035286,0.18214084208011627 l7.817667722702026,-1.863950490951538 5.848438143730164,-0.5675147473812103 l3.901347517967224,0.3160904720425606 3.361193835735321,1.0995424538850784 l2.596850097179413,1.5787991881370544 1.7687872052192688,1.8920212984085083 l0.9405345469713211,2.2123928368091583 0.05236207041889429,2.3280327022075653 l-0.9352680295705795,2.158350795507431 -1.7087624967098236,1.7792758345603943 l-4.30627167224884,2.2038744390010834 -6.110186576843262,1.2128495424985886 l-6.725564002990723,0.06070599425584078 -6.152946949005127,-1.270456463098526 l-4.866809844970703,-2.2786907851696014 -2.3224009573459625,-1.882309913635254 l-1.4688098430633545,-2.2104188799858093 -0.20880935713648796,-1.24247208237648 l1.1663413792848587,-2.3189911246299744 m33.662540912628174,0.8731108903884888 l2.059023678302765,-1.1989888548851013 2.2920773923397064,-2.234281003475189 l3.835403621196747,-5.842540860176086 1.6401557624340057,-4.383565187454224 l0.6599925458431244,-4.0006184577941895 -0.1055481843650341,-3.966105282306671 l-1.1660213023424149,-3.8017433881759644 0.09797180071473122,-1.2210685014724731 l1.4228525757789612,-1.5468814969062805 2.327399402856827,-0.9509066492319107 l3.7590813636779785,-0.09098183363676071 1.4977730810642242,0.6183952838182449 l1.3376906514167786,1.5201586484909058 0.9144050627946854,2.34052911400795 l0.26345212012529373,2.867240011692047 -0.544690303504467,2.940208911895752 l-3.8046661019325256,6.525633335113525 -3.622729778289795,3.8799631595611572 l-3.7561053037643433,2.6417645812034607 -4.2592984437942505,1.6930387914180756 l-1.62614107131958,1.635032445192337 m-31.462318897247314,9.47881281375885 l-0.4489149898290634,5.673773288726807 -1.3438430428504944,4.049407243728638 l-0.45117318630218506,1.4383149147033691 -0.9691841155290604,2.152044177055359 l-0.2707553654909134,1.0838356614112854 0.32775290310382843,0.9843991696834564 l2.0063073933124542,0.9889058768749237 2.6535725593566895,-0.003940433380194008 l1.5320281684398651,-0.7155723124742508 1.710408627986908,-1.8285144865512848 l1.277679055929184,-2.575373649597168 0.7903715223073959,-3.1356877088546753 l0.3086259216070175,-4.544186890125275 -0.3046669065952301,-2.8051960468292236 m11.137524843215942,0.15657858923077583 l-7.994523002707865e-05,7.572581768035889 0.55210892111063,4.165237545967102 l1.0985766351222992,3.1692111492156982 1.5256430208683014,1.8062135577201843 l2.1418531239032745,0.4227343201637268 1.018655151128769,-0.5498885363340378 l1.0014642030000687,-1.8244227766990662 0.7936636358499527,-4.914712309837341 l-0.31907498836517334,-6.029132604598999 -1.7124110460281372,-5.789986252784729 l-0.7615144550800323,-2.0298874378204346 m7.5453877449035645,0.7909956574440002 l1.286746859550476,4.575987160205841 2.0856596529483795,6.925754547119141 l1.138455644249916,4.346558749675751 0.627986267209053,2.8187549114227295 l0.38973696529865265,1.995101422071457 0.37392716854810715,1.7234519124031067 l0.5566053465008736,1.5735331177711487 1.12948440015316,1.6285553574562073 l1.9904857873916626,1.2136784940958023 1.9305318593978882,0.1946515217423439 l1.1921920627355576,-0.5850056558847427 1.2496498972177505,-1.8266382813453674 l0.8354624360799789,-2.9554280638694763 0.17241649329662323,-6.021989583969116 l-1.2354543060064316,-6.947682499885559 -2.260097861289978,-6.1056578159332275 m30.749146957450648,-2.7863285120474757 l-1.4296993613243103,-1.410784125328064 -1.7239335179328918,-1.0647283494472504 l-0.5808516219258308,0.44647492468357086 -1.0799700766801834,5.148823857307434 l0.39275240153074265,6.293913125991821 1.4374785125255585,3.2854029536247253 l1.248791590332985,1.3005848228931427 3.0227914452552795,1.28411665558815 l3.333839178085327,0.0017903225671034306 2.536550760269165,-1.744891107082367 l1.6809658706188202,-2.3090966045856476 1.412387490272522,-4.134626090526581 l0.12080971151590347,-4.589139521121979 -1.293218731880188,-3.256046175956726 l-1.6408590972423553,-1.9164478778839111 -2.1439988911151886,-1.2482059001922607 l-3.748624324798584,-0.5741700902581215 -3.7280693650245667,0.8533741533756256 m-2.960062026977539,3.3749833703041077 l0.11421033181250095,-5.813915133476257 0.007127637509256601,-4.469441771507263 l2.840331196784973,4.017195105552673 2.27052241563797,2.484630048274994 m4.595542848110199,-0.010028494289144874 l3.8855645060539246,-5.212993621826172 0.27981918305158615,6.388341784477234 l0.12603088282048702,3.040957450866699 m-7.564981579780579,6.336057782173157 l0.5454070866107941,-0.1908923126757145 0.28450241312384605,-0.07835855707526207 l0.28572361916303635,0.0008997396798804402 -0.3164685145020485,0.0009939118899637833 l-0.16617901623249054,0.07474187761545181 1.2026572972536087,0.5895225703716278 l-0.8243013173341751,-0.21674921736121178 -0.32003138214349747,-0.2799837663769722 l0.13781621120870113,0.00032900290534598753 0.16330143436789513,0.00032640273275319487 l-0.32738223671913147,0.0002578465864644386 -0.849987342953682,0.00040330301999347284 l-0.8912387490272522,0.00047922079829731956 -0.9027712792158127,0.00021824347641086206 l-0.9416656196117401,0.13931087218225002 -3.014776110649109,1.2805929780006409 l-2.882150113582611,1.640203595161438 -2.3764140903949738,1.7875747382640839 l-2.0899298787117004,2.1456435322761536 -0.7304497063159943,1.5275521576404572 l0.21017646417021751,0.8483772724866867 0.9713629633188248,0.503925271332264 l3.4420371055603027,0.10588015429675579 6.407533884048462,-1.0849343985319138 l3.607340455055237,-1.5342338383197784 2.422252744436264,-1.824057251214981 l1.193687841296196,-1.9626566767692566 0.18221484497189522,-1.822272539138794 m-1.3813214004039764,-0.27056341990828514 l10.561327934265137,-2.098870426416397 4.431587755680084,-1.6415537893772125 l2.6214835047721863,-1.1395270377397537 4.323344826698303,-1.6746707260608673 l2.9854458570480347,-0.7280156016349792 2.4626412987709045,0.008391223382204771 l2.4517379701137543,0.6947727501392365 3.7524929642677307,2.4440720677375793 l1.8181483447551727,2.3647578060626984 0.6496027857065201,2.3602263629436493 l-0.2908043935894966,2.353118807077408 -2.405165433883667,3.4224992990493774 l-4.509851932525635,3.0055391788482666 -3.8958963751792908,1.4082945883274078 l-6.805707216262817,1.1083471775054932 -7.667596936225891,0.1328535657376051 l-7.144913077354431,-1.0155638307332993 -6.103438138961792,-2.0788709819316864 l-2.737734317779541,-1.6020500659942627 m38.08080196380615,-7.041067481040955 l5.514395236968994,-2.1886561810970306 2.939148247241974,-1.944049894809723 l5.143612623214722,-5.396018624305725 2.218218445777893,-4.063456952571869 l1.1131678521633148,-4.216095805168152 0.055273864418268204,-4.06969279050827 l-1.2599626183509827,-4.037615656852722 -0.29139887541532516,-1.221189871430397 l0.04333268851041794,-1.3841764628887177 0.962248370051384,-1.806589812040329 l2.600308358669281,-2.4442829191684723 3.5443392395973206,-2.190956771373749 l2.336551398038864,-0.7472961395978928 2.0978085696697235,-0.04870221950113773 l1.9642871618270874,0.8732794970273972 1.4767533540725708,1.8571917712688446 l0.8383926749229431,2.5230807065963745 0.09099062532186508,2.803567051887512 l-0.7747066766023636,2.7620303630828857 -2.398093491792679,3.7642353773117065 l-6.308810114860535,6.051229238510132 -4.93999183177948,3.146047592163086 l-5.264357328414917,2.1888507902622223 -5.637776255607605,1.0743401944637299 l-1.9221208989620209,1.1490625143051147 m-32.54078149795532,8.602229356765747 l-0.4616577550768852,7.540030479431152 m13.671059608459473,-7.838237285614014 l0.14946354553103447,4.995262026786804 -0.17848864197731018,3.104574978351593 m9.652295708656311,-9.32502269744873 l0.28175046667456627,4.483896493911743 0.4489239305257797,1.8221966922283173 m5.076009035110474,-8.96077275276184 l2.6176881790161133,6.140148043632507 1.0635946691036224,1.5218521654605865 m82.37694635346998,-24.44361343568744 l-1.1651041358709335,-2.0285949110984802 -1.8427646160125732,-2.4318619072437286 l-0.6256956607103348,-0.5459344387054443 -0.8383490145206451,0.4936686158180237 l-0.6726385653018951,8.505178689956665 0.7230875641107559,4.619703888893127 l1.8553495407104492,3.750605881214142 1.395883560180664,1.2607383728027344 l3.385099768638611,1.070268526673317 3.6095958948135376,0.001588489394634962 l3.302905261516571,-1.7704689502716064 2.154340296983719,-2.1991243958473206 l1.9494645297527313,-3.9018413424491882 0.3408082574605942,-4.488645792007446 l-0.9140715003013611,-3.9217689633369446 -1.4328575134277344,-2.2925131022930145 l-2.0218709111213684,-1.5356449782848358 -4.144309759140015,-1.0891914367675781 l-4.644366204738617,0.30638303607702255 m-5.515682697296143,3.7922310829162598 l0.297847893089056,-5.300930738449097 0.014559415867552161,-4.306444227695465 l2.876838743686676,3.7279435992240906 1.4883486926555634,1.1804521828889847 m7.479194402694702,0.7179845869541168 l4.16214257478714,-4.407044053077698 0.5059071257710457,1.257154941558838 l-0.09995704516768456,6.431775689125061 m-9.746053814888,8.803213238716125 l-0.4288552328944206,-0.09672657586634159 -0.17180902883410454,0.6197430565953255 l0.5485411360859871,0.46671103686094284 0.394306443631649,-0.7014847546815872 l-0.5771398544311523,-0.31563833355903625 -0.36731183528900146,0.5621000379323959 l0.641942173242569,0.27013570070266724 -0.16272256150841713,-0.5463079363107681 l-0.5825146660208702,-0.02918474841862917 0.23849468678236008,0.6596603244543076 l0.8233606070280075,-0.01776783843524754 0.0387690681964159,-0.6378043442964554 l-0.6858121603727341,-0.030949092470109463 -0.07630132604390383,0.6599521636962891 l0.763273611664772,0.08809344843029976 0.15690477564930916,-0.7170297205448151 l-0.6705610454082489,-0.13757596723735332 -0.9873607754707336,0.0005059817340224981 l-0.9598604589700699,0.0005282722850097343 -0.8808042109012604,0.47094695270061493 l-1.8965430557727814,2.3881086707115173 -2.899532914161682,2.409689724445343 l-2.5543472170829773,1.7460311949253082 -2.620711028575897,1.3271678984165192 l-2.8294268250465393,0.8900746703147888 -3.281276822090149,0.3795623406767845 l-1.3298457860946655,0.13959843665361404 -1.5117859840393066,-0.4937930777668953 l-1.2099021673202515,-1.3319340348243713 -0.6165552511811256,-2.1998588740825653 l0.309814028441906,-2.473464608192444 0.8111317455768585,-1.3122498989105225 l2.0263081789016724,-1.4902794361114502 3.4332838654518127,-1.3318374752998352 l4.122086465358734,-0.7343184947967529 3.8328802585601807,-0.1004154235124588 l3.80756676197052,0.6413465738296509 2.7052873373031616,1.3001978397369385 l1.9898176193237305,1.7161613702774048 1.2229225784540176,1.8688233196735382 l0.396229587495327,1.9621306657791138 0.01408520620316267,1.0943862795829773 l-0.4338313266634941,1.5996617078781128 -1.6812236607074738,2.097511440515518 l-3.3612921833992004,1.8679076433181763 -4.483684599399567,0.9692468494176865 l-5.157755613327026,-0.1180002000182867 -5.05064845085144,-1.7349304258823395 l-2.8144678473472595,-1.840236634016037 -1.572098433971405,-1.9426530599594116 l-0.6867867708206177,-2.2879037261009216 0.24714946746826172,-2.2773027420043945 l0.7548895478248596,-1.1098290979862213 1.8592619895935059,-1.1821092665195465 l2.9427415132522583,-0.833246186375618 3.452567160129547,-0.30018772929906845 l3.0124181509017944,0.47935083508491516 2.3188479244709015,1.268085390329361 l1.541316956281662,1.7100699245929718 0.8515214920043945,2.0130713284015656 l0.31295206397771835,0.9993945062160492 0.2708050608634949,1.502194106578827 l0.0998771470040083,2.159222960472107 -0.24371596053242683,2.532367706298828 l-0.9267503768205643,2.5579476356506348 -2.105241119861603,2.5003135204315186 l-3.2884034514427185,1.929493397474289 -4.332417249679565,1.0632219910621643 l-5.032045245170593,-0.00544405949767679 -3.2773366570472717,-0.9048788249492645 l-2.4420900642871857,-1.5520299971103668 -1.596800535917282,-2.071937918663025 l-0.842374786734581,-2.6913437247276306 -0.041519743390381336,-2.8183501958847046 l0.9207972139120102,-2.409694492816925 1.90901979804039,-2.13647797703743 l2.8038570284843445,-1.7261792719364166 2.994854152202606,-0.9054835140705109 l2.84874826669693,-0.18473003059625626 2.3232628405094147,0.6887578219175339 l1.8902049958705902,1.6411089897155762 1.9527678191661835,3.0799925327301025 l0.7052472978830338,2.409936487674713 0.15381596982479095,2.053728550672531 l-0.3892914950847626,2.557699978351593 -0.5654050409793854,1.0604219138622284 l-2.954130172729492,2.145104557275772 -4.570775926113129,1.5995696187019348 l-5.218445658683777,0.4880419373512268 -5.1706719398498535,-0.7823661714792252 l-2.8941330313682556,-1.420905739068985 -1.7160339653491974,-1.7125028371810913 l-0.9034400433301926,-2.256367802619934 -0.058875870890915394,-2.526557743549347 l1.002328097820282,-2.348335385322571 m12.85658597946167,0.25191159918904305 l12.92725920677185,-2.38486111164093 m-22.64683723449707,3.392365872859955 l-4.939551651477814,-1.1026545614004135 -8.293644785881042,-2.239111065864563 m100.55699141288642,-6.6811776709255355 l-0.8776665478944778,-2.5605493783950806 -1.96445032954216,-3.8496896624565125 l-0.5458951741456985,-1.017005518078804 -0.8318924903869629,-0.9756272286176682 l-1.2948286533355713,3.7743711471557617 0.8137137442827225,10.470062494277954 l1.3191349804401398,3.4480851888656616 1.1535710096359253,1.4929866790771484 l3.0378955602645874,1.9030159711837769 5.443210005760193,0.899101197719574 l2.5301581621170044,0.0013833142293151468 2.4859245121479034,-0.8692985773086548 l3.173828423023224,-2.7069514989852905 2.461501806974411,-4.045552313327789 l1.3280171155929565,-4.739958047866821 0.10339624248445034,-4.660227000713348 l-1.4286145567893982,-3.553372025489807 -1.8091659247875214,-1.845059096813202 l-4.14013147354126,-1.5908770263195038 -10.818701982498169,2.0227012038230896 l-2.176579236984253,1.4488303661346436 m-1.6589437425136566,1.254711002111435 l0.31304996460676193,-5.7682865858078 -0.16291584819555283,-4.250289797782898 l3.87343168258667,4.270530939102173 3.1411367654800415,2.2734633088111877 m8.28309953212738,-0.7260334491729736 l5.431663393974304,-4.056361615657806 0.4011883959174156,5.337094664573669 l-0.7016801834106445,3.167625069618225 m-11.211389303207397,8.231330513954163 l0.5908895656466484,-0.2754402905702591 0.09562330320477486,-0.1352624036371708 l-0.5773026123642921,0.22672710940241814 -0.5451518297195435,0.49106691032648087 l0.3910256549715996,0.3532074764370918 0.2884621173143387,-0.48521738499403 l-0.4189278185367584,-0.2686716243624687 -0.9937920421361923,0.0004590017124428414 l-0.8773451298475266,0.000948207889450714 -0.5568123236298561,0.3558998927474022 l-0.8785060048103333,2.3527057468891144 1.0589080303907394,0.624542161822319 l1.446785032749176,0.0005735027662012726 0.8350144326686859,-1.5354976058006287 l-0.46141427010297775,-0.5633703991770744 -1.7745256423950195,-0.26116764172911644 l-0.5600802600383759,0.5068627744913101 1.1890330165624619,0.580199733376503 l0.5630572512745857,-0.7645969092845917 -0.7103057205677032,-0.305684357881546 l-0.9837581217288971,0.00036211873521097004 -0.9606639295816422,0.001048977137543261 l-1.6639018058776855,1.44204780459404 1.2528303265571594,0.5022791773080826 l3.1075245141983032,-0.289812907576561 -0.14820722863078117,-1.0253997147083282 l-1.1841755360364914,-0.16562428325414658 -1.783038079738617,0.0007728659693384543 l-1.7727211117744446,0.000618623525951989 -2.9880255460739136,1.0991649329662323 l-5.072304606437683,1.9352707266807556 -3.651246726512909,1.605449914932251 l-3.1273433566093445,1.6118936240673065 -1.2158197909593582,1.0364218056201935 l0.02212892984971404,0.700502023100853 1.1134843528270721,0.3837353363633156 m19.6707820892334,-7.189250588417053 l-2.1588653326034546,0.37637557834386826 -10.515402555465698,3.9756324887275696 l-6.089375019073486,2.9805725812911987 -2.497388869524002,1.9055408239364624 l-0.6629612296819687,1.0936816781759262 m21.885201930999756,-11.630125045776367 l10.2632737159729,0.671578124165535 10.619440078735352,1.5814924240112305 l4.354515075683594,1.2254663556814194 1.2604337930679321,0.7406897097826004 m-27.023890018463135,-4.038289487361908 l12.10477590560913,1.9246749579906464 11.033822298049927,2.716209590435028 l7.060108780860901,2.4093079566955566 m-33.05893659591675,-10.554746389389038 l5.760602355003357,-0.013498690677806735 16.712334156036377,0.5590152740478516 l7.52422571182251,0.9315382689237595 m-32.86551237106323,-3.2245299220085144 l6.775383353233337,0.7693041861057281 19.43148970603943,3.2031652331352234 l9.198477864265442,1.6580761969089508 m-35.38508653640747,-7.21502959728241 l3.0083587765693665,0.6779313087463379 14.49815034866333,3.835170865058899 l18.826148509979248,5.263575911521912 m49.288914068602026,-13.350288779165567 l-0.6035516411066055,-3.001720905303955 -2.0445099472999573,-5.196658968925476 l-0.6886661052703857,-2.4706242978572845 -0.5479095876216888,-2.5537386536598206 l0.3247644007205963,1.3241274654865265 2.790462076663971,10.375416278839111 l0.7722489535808563,2.92959064245224 m11.225630044937134,-1.5497948229312897 l2.719545066356659,-8.302605748176575 1.2394922971725464,-5.072640776634216 l0.6154780089855194,0.14009702019393444 3.0524739623069763,8.021777868270874 l1.2025152146816254,6.766364574432373 0.20497305318713188,1.4187626540660858 m-20.515341758728027,-2.7560406923294067 l-1.2331163138151169,0.27179358527064323 -1.516152024269104,1.4861874282360077 l-1.365654617547989,2.5725308060646057 -1.060822606086731,5.1134419441223145 l0.3615127131342888,4.032820463180542 3.4835854172706604,4.904076457023621 l4.485003650188446,2.820427119731903 5.267667770385742,1.3987985253334045 l4.852840602397919,0.0008475071808788925 3.229983150959015,-0.9552700817584991 l2.6644906401634216,-1.6643577814102173 2.126454710960388,-2.2065886855125427 l1.482577919960022,-2.670937478542328 0.9736249595880508,-4.413969814777374 l-0.10721118189394474,-3.369382619857788 -1.6692730784416199,-4.063073992729187 l-1.9301345944404602,-2.255179286003113 -2.388979494571686,-1.4287219941616058 l-2.8045374155044556,-0.7373998314142227 m-14.3274986743927,4.1036805510520935 l-0.34143976867198944,0.08542833849787712 0.09033869951963425,0.7708150893449783 l0.9856085479259491,0.49369748681783676 0.4582291468977928,-0.9082657843828201 l-0.7925813645124435,-0.35790983587503433 -0.4682901129126549,0.6154170259833336 m13.314131498336792,-0.2589217387139797 l-0.5901063606142998,0.42159076780080795 0.7487287372350693,0.4338867589831352 l0.02069486305117607,-0.8384031057357788 -0.8250195533037186,0.02236616099253297 l0.09329544380307198,0.3929075598716736 m-7.466099858283997,6.530337929725647 l-0.1595933549106121,1.9734151661396027 0.3931356966495514,1.1885356903076172 l1.4319643378257751,1.0376295447349548 2.0963385701179504,0.001340111339231953 l0.7575097680091858,-1.2202852219343185 0.019355150870978832,-1.038718819618225 l-0.8002480119466782,-1.1658278852701187 -3.257893919944763,-0.9366783499717712 m1.0001382231712341,3.432910740375519 l4.970825612545013,-1.2007969617843628 13.738481998443604,-3.685504198074341 l8.948184251785278,-1.55418261885643 4.5782530307769775,-0.3933999687433243 l1.4222350716590881,0.2569529227912426 m-32.408649921417236,6.757672429084778 l5.092571973800659,-0.501641072332859 22.562284469604492,-1.3748610019683838 l6.2395113706588745,-0.47239992767572403 3.7805911898612976,-0.24617835879325867 m-37.458274364471436,2.8187426924705505 l16.920326948165894,1.6584175825119019 12.364104986190796,1.7992137372493744 l9.284884333610535,1.663457602262497 m-42.35128402709961,-6.232012510299683 l-13.40038776397705,-1.2695799767971039 -11.373463869094849,-0.7392530888319016 l-9.55104112625122,-0.4454796761274338 -7.367724180221558,-0.15185988508164883 m38.81021738052368,2.6877760887145996 l-13.215460777282715,1.306212991476059 -10.381338596343994,1.900436133146286 l-8.237923383712769,2.045850306749344 -6.191912889480591,1.9180895388126373 m37.50656843185425,-5.635473728179932 l-12.743898630142212,4.014962613582611 -9.195168614387512,3.375086486339569 l-7.1389055252075195,2.990162670612335 m104.77990671643056,-22.282862439751625 l-0.31892798840999603,-3.3819931745529175 -2.052820920944214,-6.37563169002533 l-0.6324098259210587,-3.002166748046875 -0.2807251736521721,-2.2266723215579987 l0.18272185698151588,-2.5823238492012024 1.561569720506668,1.6150137782096863 l6.537490487098694,10.505067110061646 2.8204160928726196,3.6686384677886963 m8.635364174842834,-0.9249666333198547 l3.040308654308319,-9.039015173912048 2.5704964995384216,-7.1426475048065186 l0.8642852306365967,0.9843897819519043 2.5240930914878845,9.758235812187195 l1.5816578269004822,5.020989179611206 0.35881850868463516,1.2697228789329529 m-24.205880165100098,0.4209521412849426 l1.4224384725093842,-0.8022873103618622 4.331405460834503,-0.960744172334671 l5.03851592540741,-0.08580444380640984 3.7747809290885925,0.8575683087110519 l1.974276453256607,1.039649173617363 2.0065733790397644,2.1841251850128174 l2.109750807285309,4.89884614944458 0.5394566804170609,3.9871886372566223 l-0.8266517519950867,5.59326708316803 -1.4899978041648865,3.203887641429901 l-1.9484302401542664,2.3577749729156494 -2.431510090827942,1.6622135043144226 l-4.317351281642914,1.36482372879982 -4.952171146869659,0.327414870262146 l-5.042464733123779,-0.7901270687580109 -4.746271371841431,-2.0996105670928955 l-3.4335508942604065,-2.8127330541610718 -2.141839414834976,-3.6590301990509033 l-0.9014832228422165,-4.766780734062195 0.5813905224204063,-4.780116975307465 l1.425238847732544,-2.514863610267639 1.9848217070102692,-1.683267056941986 m6.9907790422439575,3.463146388530731 l-0.6062079966068268,0.14302042312920094 -0.3102986700832844,0.8309253305196762 l0.2980106323957443,0.5635546892881393 1.0643038898706436,0.0008103183790808544 l0.25348465889692307,-0.9928090125322342 -0.870814248919487,-0.2616935409605503 l-0.4212746024131775,0.4714205116033554 m12.718719244003296,-0.31877610832452774 l-0.7286734879016876,0.4210349917411804 0.7479628175497055,0.7376916706562042 l1.1272328346967697,-0.2418408915400505 -0.007196023361757398,-0.8237573504447937 l-1.061512976884842,-0.11868584901094437 m-8.822691440582275,6.68982207775116 l-0.2614043839275837,1.7461985349655151 0.4947139322757721,1.0333652794361115 l2.0018458366394043,0.8030162006616592 2.8503024578094482,0.0016126602713484317 l0.7179691642522812,-1.0198406130075455 -0.022759721614420414,-0.924290120601654 l-0.5767569690942764,-0.6173607334494591 -2.3462845385074615,-0.5086230486631393 l-3.2831478118896484,-0.1189956534653902 m2.899259626865387,1.7628265917301178 l4.781727194786072,-1.0360492765903473 19.431512355804443,-3.4738031029701233 l5.436955690383911,-1.4004471898078918 1.8887729942798615,-0.9713463485240936 l0.16240384429693222,-0.2872164361178875 m-30.39571762084961,7.55033552646637 l16.237276792526245,0.3075061924755573 8.013848662376404,-0.9917775541543961 l6.03130578994751,-0.0008611437806393951 m-30.85965394973755,0.6298582255840302 l3.6570724844932556,0.9082961827516556 17.97237992286682,2.570297122001648 l10.574969053268433,1.507607251405716 3.8055217266082764,0.11015333235263824 m-37.397634983062744,-5.3251588344573975 l-14.190773963928223,-1.3040147721767426 -10.858463048934937,-0.8441639691591263 l-9.465149641036987,-0.6857600808143616 m32.952656745910645,2.39090234041214 l-4.375695586204529,0.5204101279377937 -21.34338617324829,2.275204062461853 l-8.539884090423584,1.9077397882938385 m34.333789348602295,-4.039685130119324 l-3.20345401763916,0.8171697705984116 -19.07640814781189,5.210747718811035 l-8.485841751098633,2.701820731163025 -5.17541766166687,1.1765465885400772 m98.22640019468963,-21.17943110917622 l-0.07273878436535597,-3.644016683101654 -2.490518093109131,-8.648391366004944 l-0.6867070496082306,-4.881902635097504 -0.09353828616440296,-2.5175514817237854 l0.34882672131061554,-0.6684748828411102 0.7660727947950363,0.37500128149986267 l6.169531941413879,9.578401446342468 3.211478292942047,4.223578572273254 m12.900388240814209,1.1066129058599472 l3.9144527912139893,-9.616990685462952 1.8530753254890442,-3.17197322845459 l2.9995736479759216,-4.9337562918663025 0.8284256607294083,2.0719048380851746 l2.092668116092682,10.294266939163208 1.5228904783725739,5.2310991287231445 l0.21476134657859802,1.208522692322731 m-30.521721839904785,0.18434332683682442 l1.6080616414546967,-0.6905460357666016 5.092074275016785,-0.7414202392101288 l5.779848694801331,0.20871328189969063 5.665319561958313,1.8421496450901031 l3.2030299305915833,1.990622729063034 1.363571584224701,1.5220698714256287 l1.2100010365247726,2.760602831840515 0.5789836496114731,3.631908893585205 l-0.2507178857922554,3.680424988269806 -1.1364440619945526,3.208814561367035 l-1.812315583229065,2.7016326785087585 -2.341284453868866,2.082340717315674 l-4.337042570114136,2.148994505405426 -5.357031226158142,1.0912922769784927 l-5.643714070320129,-0.036416128277778625 -5.1885658502578735,-1.3409696519374847 l-3.0067917704582214,-1.5305571258068085 -3.348398804664612,-3.015519678592682 l-2.1227839589118958,-4.0106090903282166 -0.7072803378105164,-5.025269389152527 l0.8671633154153824,-4.686184525489807 1.5473084151744843,-2.3497311770915985 l1.2556153535842896,-0.9071227163076401 m8.511000275611877,3.9339247345924377 l-0.7188962399959564,0.1335692498832941 -0.46156227588653564,0.8706804364919662 l0.23804299533367157,0.5777542665600777 1.2689489126205444,0.0005752814467996359 l0.3022116422653198,-0.9913022071123123 -0.8892207592725754,-0.3177710250020027 l-0.4563544690608978,0.5626023188233376 m14.345513582229614,-0.4230085387825966 l-0.7764407992362976,0.33010605722665787 0.7949488610029221,0.8642715960741043 l1.2553153932094574,-0.2011619508266449 0.08858231827616692,-0.8838775753974915 l-1.1050283908843994,-0.20161336287856102 -0.6095036119222641,0.5456851795315742 m-7.946335673332214,6.414560079574585 l-0.36276359111070633,2.0509059727191925 -0.14183714054524899,0.9515080600976944 l0.05420736037194729,0.8761308342218399 0.8796373009681702,1.4832821488380432 l2.389712631702423,1.0087908804416656 2.4177132546901703,-0.07598473690450191 l2.2034184634685516,-1.0729063302278519 0.9156453609466553,-1.0656153410673141 l0.36394044756889343,-1.7679686844348907 -0.4065953940153122,-0.8953221142292023 l-1.4366261661052704,-0.9295013546943665 -3.595481812953949,-0.6588727980852127 l-4.341294467449188,0.0297953630797565 -2.5525668263435364,0.5811799317598343 l-1.1257319152355194,0.847262367606163 -0.6683371216058731,1.5334208309650421 l0.3970334678888321,0.5946052074432373 3.783121407032013,0.6102039664983749 l2.427840381860733,-1.5320244431495667 0.40283236652612686,-0.6844190508127213 l-0.4285622015595436,-1.3101449608802795 -0.9215505421161652,0.0005203437103773467 l-4.957924783229828,2.233167290687561 -0.8594822138547897,0.7186543196439743 l-1.2177375704050064,0.9865051507949829 -2.841154634952545,0.7412869483232498 l-7.379746437072754,-0.996248796582222 -3.5860219597816467,-0.8531922847032547 l-4.241660237312317,-1.6400264203548431 -2.2198237478733063,-1.36503204703331 l-0.4898064211010933,-0.7152315229177475 m30.615761280059814,4.0999725461006165 l-1.4662060141563416,0.7303378731012344 -12.049745321273804,1.6525854170322418 l-9.025211334228516,1.1697980016469955 m22.77956485748291,-2.8007328510284424 l-9.660568237304688,3.576427400112152 -16.098012924194336,3.8189491629600525 m29.049842357635498,-9.756070375442505 l10.532296895980835,-0.41522491723299026 25.926363468170166,-1.0765821486711502 m-36.11558198928833,3.4794452786445618 l5.231765508651733,0.3021295927464962 24.43584680557251,1.70000821352005 l10.354831218719482,0.9806039929389954 m27.1752319438383,-15.911413095564058 l0.1595725677907467,-3.8787835836410522 -2.43756964802742,-9.651520252227783 l-0.8126013725996017,-5.607826113700867 -0.18533525988459587,-2.830057740211487 l0.23535685613751411,-0.7887144386768341 0.6651058048009872,0.24091823026537895 l5.565970540046692,8.410735130310059 3.6057159304618835,6.720648407936096 l1.0908964276313782,1.1770492047071457 m17.48456597328186,1.07036292552948 l4.808629751205444,-9.837027788162231 4.116026163101196,-7.1722739934921265 l2.274170219898224,-2.631154954433441 0.8947234600782394,2.1271532773971558 l1.7464655637741089,10.49622893333435 1.5793168544769287,5.171804428100586 l0.38255974650382996,1.279195249080658 m-37.03075647354126,0.6368155032396317 l3.0295294523239136,-0.8298352360725403 5.5251699686050415,-0.5366808548569679 l7.068570256233215,0.5009740218520164 6.024532318115234,1.9922271370887756 l3.2877469062805176,1.9420219957828522 2.381296306848526,2.468430995941162 l1.4216578006744385,2.910991609096527 0.5068271234631538,3.2905247807502747 l-0.3693583607673645,3.2486414909362793 -1.320195198059082,2.9241594672203064 l-2.0230765640735626,2.4534593522548676 -2.60517418384552,1.9461914896965027 l-4.887669086456299,1.9738388061523438 -5.6876009702682495,0.9134484827518463 l-5.974665284156799,0.00034574255550978705 -5.732225179672241,-1.2519408762454987 l-4.827228784561157,-2.389201819896698 -3.5568958520889282,-3.1615328788757324 l-2.392493784427643,-4.118307828903198 -0.8545299619436264,-4.822678565979004 l0.6208018958568573,-4.652863442897797 0.8149530738592148,-1.3508106768131256 m13.69937777519226,3.756176233291626 l-0.6774888932704926,0.09237315505743027 -0.433572381734848,0.8018066734075546 l0.3046874329447746,0.5411675199866295 1.9391554594039917,0.49776606261730194 l0.569927766919136,-0.8299347013235092 -0.18620355054736137,-0.6953202188014984 l-1.0674618929624557,-0.2026563696563244 -0.5871928855776787,0.47879133373498917 m14.495736360549927,-0.08184336125850677 l-1.0114992409944534,0.40053922683000565 -0.45986052602529526,0.8811602741479874 l1.3849322497844696,0.29439186677336693 0.5453756079077721,-0.8205153793096542 l-0.8799540996551514,-0.3451099991798401 -0.816231444478035,0.47086581587791443 m-7.059576511383057,5.658912658691406 l-0.8379806578159332,1.5896165370941162 -0.24023747071623802,0.7569405436515808 l0.40061749517917633,0.6269227713346481 2.9514196515083313,0.8759032934904099 l0.7162056118249893,-0.8561434596776962 -0.23180197924375534,-1.3929888606071472 l-3.0171552300453186,-1.5996284782886505 -1.309380978345871,0.02159715397283435 m-0.34322720021009445,3.2980775833129883 l-11.349711418151855,-1.045166403055191 -9.956519603729248,-0.42966946959495544 l-7.890990972518921,-0.025839537847787142 m28.231444358825684,2.2144342958927155 l-13.130565881729126,0.6004156917333603 -9.448639750480652,1.2780341506004333 l-7.2291141748428345,1.7268551886081696 m29.600841999053955,-2.3892536759376526 l-11.140570640563965,2.2029849886894226 -8.845105767250061,2.08758145570755 l-7.126055955886841,2.205698937177658 m30.693202018737793,-8.945550322532654 l14.155986309051514,-1.2480488419532776 11.996990442276001,-0.45759420841932297 l8.933327794075012,0.1324217952787876 m-34.33276653289795,2.8534480929374695 l5.599916577339172,-0.3367144241929054 17.39725112915039,1.6346850991249084 l11.013532876968384,1.5975342690944672 " fill="none" stroke="black" stroke-width="1" /></svg>