<?xml version="1.0" encoding="utf-8" ?>
<svg baseProfile="full" height="97.85976860996925" version="1.1" width="826.462603432592" xmlns="http://www.w3.org/2000/svg" xmlns:ev="http://www.w3.org/2001/xml-events" xmlns:xlink="http://www.w3.org/1999/xlink"><defs /><rect fill="white" height="97.85976860996925" width="826.462603432592" x="0" y="0" /><path d="M25,25 m0.0,0.0 m27.988455027626742,20.126271281246773 l-0.02818976528942585,0.07015631534159184 -2.8683069348335266,1.5100036561489105 l-4.7101035714149475,-0.08948502130806446 -1.483420729637146,-0.1450770627707243 l-3.6150121688842773,-0.797964334487915 -2.7396011352539062,-0.07547496352344751 l-1.173405796289444,0.45437660068273544 -2.0813560485839844,2.441597580909729 l-0.7618673890829086,1.7712277173995972 -0.6672058254480362,3.93363356590271 l-6.998707249294966e-05,3.452928066253662 0.40368814021348953,1.577828824520111 l1.4611223340034485,2.783772051334381 1.6792799532413483,1.8705329298973083 l1.3189123570919037,0.93094602227211 3.130013942718506,1.2586989998817444 l2.980470061302185,0.4467559978365898 3.11345636844635,6.278432465478545e-05 l2.9962992668151855,-1.5069259703159332 2.562286853790283,-2.426874488592148 l1.7415428161621094,-2.5504985451698303 2.0180127024650574,-3.7591680884361267 l0.9719444811344147,-0.6863720715045929 2.585378885269165,-0.5277105420827866 l6.152728796005249,0.6091061979532242 2.9208379983901978,-0.6738334149122238 l1.885688602924347,-1.5601326525211334 1.005372777581215,-1.9201767444610596 l0.3162245452404022,-2.3766382038593292 -0.49708548933267593,-2.31375053524971 l-1.3998468220233917,-2.138177752494812 -2.156030386686325,-1.919243186712265 l-2.6803994178771973,-1.2706822156906128 -3.2014092803001404,-0.5714101344347 l-4.646048843860626,0.2790069952607155 -2.941157817840576,1.722913682460785 l-1.414070725440979,1.6455323994159698 -1.425081491470337,0.7765039056539536 l-0.9971874952316284,0.16780903562903404 m-1.5024711191654205,5.119927525520325 l-1.343948245048523,0.12169742025434971 -1.4428351819515228,0.9792894124984741 l-0.884401947259903,1.5261201560497284 -3.5919731544709066e-05,1.6971445083618164 l1.0593406856060028,1.0783927887678146 1.8589943647384644,0.5183181166648865 l1.9251897931098938,-0.184407290071249 1.4954665303230286,-0.9625200927257538 l0.9515032917261124,-1.4725157618522644 0.19643016159534454,-1.7034618556499481 l-0.6330809742212296,-1.336056888103485 -1.4260123670101166,-0.8185066282749176 l-1.91658154129982,-0.13927945867180824 -1.4292442798614502,0.5169510841369629 l-0.9421087056398392,1.0200893133878708 m12.53244400024414,-3.8459953665733337 l3.7388673424720764,-1.1002083122730255 8.168251514434814,-3.223831057548523 l7.969796657562256,-3.0110591650009155 6.1054158210754395,-2.8021717071533203 l4.675179719924927,-2.241208255290985 3.3670443296432495,-1.6372555494308472 l1.2834706902503967,0.014107389142736793 1.82783842086792,2.048478424549103 l0.7043329626321793,1.9513988494873047 -0.3289825841784477,0.7398209720849991 l-1.1303634196519852,0.8255621790885925 -2.7577775716781616,0.7889633625745773 l-3.5345524549484253,1.5102870762348175 -10.007747411727905,3.4802529215812683 l-6.768956184387207,2.9707661271095276 -5.2568817138671875,1.5446384251117706 l-2.0632681250572205,0.9651030600070953 -2.749946415424347,0.5304865911602974 m-13.414145708084106,1.6057005524635315 l2.2990626096725464,-0.7368398457765579 6.350952982902527,-2.2267939150333405 l8.333685398101807,-3.1255951523780823 4.583066403865814,-2.1549588441848755 l7.281642556190491,-3.236394226551056 5.052710771560669,-1.3664677739143372 l3.0869805812835693,-1.3578128814697266 2.4077343940734863,-0.5668585002422333 l1.7985986173152924,-0.9682101756334305 1.8725530803203583,-0.4192732647061348 l1.3097144663333893,-0.7361871749162674 1.374809592962265,-0.22313879802823067 m-45.79829216003418,17.986246347427368 l6.140354871749878,-1.9408568739891052 4.424265623092651,-2.02240914106369 l3.72816264629364,-1.1269105970859528 3.9102259278297424,-1.8350410461425781 l3.620586097240448,-1.0433679074048996 3.7368470430374146,-1.6785764694213867 m56.15730556686799,-1.7959543692541047 l0.13262368738651276,0.10363468900322914 -2.9630547761917114,1.2631389498710632 l-5.015693306922913,0.18387878313660622 -1.8016791343688965,0.09244854561984539 l-3.8588961958885193,0.12911956757307053 -1.5005630254745483,0.40356118232011795 l-1.05318121612072,0.6644269824028015 -2.024560123682022,2.347603142261505 l-1.6329888999462128,3.7662452459335327 -0.4218202084302902,2.12549552321434 l-3.3071696634578984e-05,4.331052303314209 0.4434654861688614,1.7921045422554016 l1.547614187002182,3.1685253977775574 1.7242562770843506,2.0448623597621918 l1.3457110524177551,1.060384213924408 3.0119559168815613,1.3994352519512177 l1.9080035388469696,0.44794339686632156 3.4890976548194885,7.991259735717904e-05 l3.4018775820732117,-1.1002276837825775 3.2970067858695984,-2.0366063714027405 l2.644820213317871,-2.4387431144714355 2.009587585926056,-3.1136590242385864 l2.594115436077118,-1.8313151597976685 3.300762176513672,-1.1070048063993454 l4.878853261470795,-0.43408624827861786 1.6976141929626465,-0.7613030076026917 l1.298590898513794,-1.4711961150169373 0.7120306044816971,-2.2494228184223175 l-6.187624421727378e-05,-2.8516626358032227 -1.0424895584583282,-2.712067663669586 l-2.742117941379547,-3.3734935522079468 -2.634471356868744,-1.8356719613075256 l-2.9645654559135437,-1.0634656995534897 -3.254743814468384,-0.3589123487472534 l-3.2350733876228333,0.9132663160562515 -1.791217178106308,1.2731046974658966 l-1.0137787461280823,1.463189721107483 -1.0523070394992828,0.6288202852010727 m-1.9457854330539703,5.777086615562439 l-1.5739069879055023,0.25398749858140945 -1.5759247541427612,1.161472201347351 l-0.9295620769262314,1.602756828069687 -0.16895979642868042,1.6676755249500275 l0.7834357023239136,1.1563485115766525 0.842682346701622,0.5041361972689629 l2.3930634558200836,0.43328654021024704 2.0126812160015106,-0.4664229229092598 l1.4913153648376465,-1.1764609068632126 0.8460226655006409,-1.6048836708068848 l0.0907637644559145,-1.7541179060935974 -0.8019198477268219,-1.3960503041744232 l-1.5532436966896057,-0.844753310084343 -2.118166834115982,-0.15814103186130524 l-1.528664082288742,0.5201156064867973 -1.0720942169427872,1.0340479761362076 l-0.39975259453058243,1.3644835352897644 0.3305598348379135,1.38345405459404 l0.7429004460573196,0.6621008366346359 2.069993317127228,0.5965846031904221 l1.7221242189407349,-0.4150182753801346 1.0139192640781403,-1.103852540254593 l0.3643612563610077,-1.484316736459732 -0.4593859985470772,-1.147674024105072 l-1.32870152592659,-0.7000980526208878 -1.9699105620384216,-0.03894911613315344 l-1.3549764454364777,0.7411184161901474 -0.7870162278413773,1.2753315269947052 l-0.031420302111655474,1.4832939207553864 1.1633668839931488,0.7517530769109726 l1.445946991443634,-0.0004742345481645316 1.4241614937782288,-0.7299577444791794 l0.8322181552648544,-1.237577497959137 0.04797724075615406,-1.2135141342878342 l-0.8363176137208939,-0.7415040582418442 -1.5479527413845062,-0.12088209390640259 l-1.2002414464950562,0.6564269214868546 -0.7279259711503983,1.2150249630212784 l0.02612551674246788,1.4278247952461243 0.595497265458107,0.5814263224601746 l1.2792611122131348,0.13257374987006187 1.3329100608825684,-0.7210008054971695 l0.768737867474556,-1.2839311361312866 0.013686363818123937,-1.1900019645690918 l-0.9151686728000641,-0.6624627858400345 -1.6325046122074127,0.012756924843415618 l-1.2227430194616318,0.7790283113718033 -0.7179585099220276,1.3285084068775177 l0.06810252089053392,1.4620330929756165 0.572449192404747,0.5513792857527733 l1.2009983509778976,0.07436126004904509 1.2608957290649414,-0.7822862267494202 l0.7850240170955658,-1.3938377797603607 -0.0008650922973174602,-1.293160319328308 l-0.9876061230897903,-0.668041780591011 -1.7201191186904907,0.010429484536871314 l-1.28056600689888,0.7709529250860214 -0.7473386824131012,1.2992657721042633 m14.448425769805908,-4.925076067447662 l16.677011251449585,-5.931541323661804 16.17194890975952,-5.693454146385193 l6.298232674598694,-1.8111100792884827 1.2875372171401978,2.1128450334072113 l0.21866442635655403,3.473845422267914 -13.06073546409607,4.128952920436859 l-16.624927520751953,4.502401351928711 -12.093634605407715,3.2374289631843567 m-7.504261136054993,0.17677327618002892 l4.453654587268829,-1.139744594693184 26.65912389755249,-8.477017283439636 l11.083898544311523,-3.2045406103134155 4.365832209587097,-1.6261930763721466 m-48.315134048461914,15.940675735473633 l8.679260611534119,-2.6269394159317017 28.36602210998535,-9.79504942893982 l7.7229756116867065,-2.0950712263584137 m33.7172239727397,1.5847378999171724 l0.2520373649895191,0.13343802653253078 -2.9975345730781555,1.0210666060447693 l-5.056412220001221,0.3660179302096367 -2.03507661819458,0.2693101763725281 l-3.0560678243637085,0.7163242250680923 -2.89188414812088,1.066618412733078 l-1.3993267714977264,0.8646764606237411 -2.2826656699180603,2.45970219373703 l-0.9199030697345734,1.7797969281673431 -0.92796191573143,4.555853307247162 l3.3511350920889527e-05,4.286000728607178 0.4395759105682373,1.9331786036491394 l1.6897830367088318,3.736087679862976 1.2809433043003082,1.7721572518348694 l2.70826518535614,2.3835116624832153 1.6069711744785309,0.9143634885549545 l2.604013979434967,0.8136455714702606 3.4505441784858704,0.3016848862171173 l3.001338243484497,0.0001240726669493597 2.1459299325942993,-0.5329736694693565 l4.048992395401001,-2.0939140021800995 4.562197327613831,-4.775997698307037 l1.4475807547569275,-2.6939210295677185 0.7948022335767746,-2.7466121315956116 l0.32828938215970993,-3.7707924842834473 0.5263012647628784,-0.7996567338705063 l1.6856768727302551,-1.102091372013092 3.6317795515060425,-1.197153478860855 l1.848999410867691,-1.1890704929828644 1.0879810154438019,-1.3666483759880066 l0.5837596580386162,-2.0492391288280487 6.212769221747294e-05,-2.353844940662384 l-1.0173151642084122,-2.308438718318939 -1.8796749413013458,-1.8960382044315338 l-2.797609269618988,-1.4771270751953125 -3.4479209780693054,-0.7308331876993179 l-4.091169536113739,2.2358733531291364e-05 -3.6392155289649963,1.5059657394886017 l-1.7885281145572662,1.4293833076953888 -0.6111740320920944,1.1326304823160172 m-4.590780436992645,7.112763524055481 l-1.3456261157989502,0.2508658915758133 -1.3574650883674622,1.1078532040119171 l-0.8953449130058289,1.8068678677082062 3.080718670389615e-05,1.8498846888542175 l0.35854585468769073,0.7699307799339294 1.5569110214710236,1.2321928143501282 l2.283666580915451,0.4201987758278847 1.975986808538437,-0.45632753521203995 l1.5630783140659332,-1.2048443406820297 0.918353870511055,-1.7090925574302673 l0.09268087334930897,-1.8354636430740356 -0.8294583857059479,-1.517845094203949 l-1.6233225166797638,-0.9903325140476227 -2.1497151255607605,-0.30390290543437004 l-1.5839838981628418,0.390390008687973 -1.1022869497537613,1.015613004565239 l-0.5373328551650047,1.42706960439682 0.21209964528679848,1.4610408246517181 l0.6139411777257919,0.6472373008728027 1.3608653843402863,0.4642849415540695 l1.7089489102363586,-0.25048108771443367 1.2534424662590027,-1.013197898864746 l0.5927421152591705,-1.287657767534256 -0.11719105765223503,-1.1867652833461761 l-1.0565821826457977,-0.8116733282804489 -1.7483562231063843,-0.15291767194867134 l-1.3112804293632507,0.6622741371393204 -0.8442742377519608,1.2786701321601868 l-0.12361920438706875,1.5912581980228424 1.1223209649324417,0.7671758532524109 l1.6831150650978088,-0.056013623252511024 1.373022198677063,-0.8800483494997025 l0.7198550552129745,-1.2648934125900269 -0.004131688619963825,-1.175430566072464 l-0.8767662197351456,-0.7275693863630295 -1.638479232788086,-0.1847098208963871 l-1.2828929722309113,0.5426506325602531 -0.8734828978776932,1.1610716581344604 l-0.1704167202115059,1.418754756450653 0.4923844337463379,0.6731381267309189 l1.2789925932884216,0.28123827651143074 1.465327888727188,-0.5448057502508163 l1.0251732170581818,-1.1643720418214798 0.31634368002414703,-1.2465361505746841 l-0.49546588212251663,-0.8147820085287094 -1.3621769845485687,-0.3290945291519165 l-1.1775127798318863,0.4246225580573082 -0.8159853518009186,1.0574693977832794 l-0.19137557595968246,1.4284075796604156 0.5569644272327423,1.100393608212471 l0.8137664943933487,0.3917984664440155 1.2274893373250961,-0.23260558024048805 l1.0993960499763489,-1.114056259393692 0.4594023525714874,-1.4644268155097961 l-0.40556177496910095,-1.0645711421966553 -1.2268007546663284,-0.4561656340956688 l-0.7495462149381638,0.27465667575597763 -0.6234754994511604,0.9293562173843384 l-0.08500008843839169,1.3848377764225006 0.5391307920217514,0.5182988196611404 l1.040201410651207,-0.057466491125524044 0.8936753869056702,-0.9359932690858841 l0.29192905873060226,-1.241319254040718 -0.5641907081007957,-0.7715852558612823 l-1.426798552274704,-0.12919938191771507 -0.602915845811367,0.462929867208004 l-0.22832009941339493,1.0388851165771484 0.5141407623887062,0.46505920588970184 l0.8342978358268738,0.025377687998116016 0.79458087682724,-0.6743494421243668 l0.21814540028572083,-1.0084040462970734 -0.5796563997864723,-0.6280206143856049 l-1.2177268415689468,0.7791908830404282 -0.5734909325838089,1.4093601703643799 l0.4310191422700882,0.43718717992305756 0.8875852078199387,-0.09658056311309338 l0.7663261890411377,-0.868188887834549 m5.911074280738831,-2.838578224182129 l19.71769094467163,-5.634527802467346 19.48490262031555,-5.137304663658142 l7.11457371711731,-1.5504823625087738 1.9888398051261902,-0.6448325514793396 l2.022221088409424,-0.3802250698208809 2.259238213300705,0.20067695528268814 l1.7883199453353882,1.2247887998819351 1.0392406582832336,1.4029644429683685 l0.43457716703414917,1.515234261751175 -0.4288921132683754,0.7451218366622925 m27.653208589103997,0.3118499676031661 l0.33974364399909973,0.1483297348022461 -2.9946908354759216,0.7772508263587952 l-5.076037645339966,0.5477165803313255 -2.2162851691246033,0.4352891072630882 l-3.1641843914985657,1.0777512937784195 -1.61839559674263,0.8629969507455826 l-2.8078579902648926,2.388905882835388 -1.2525266408920288,1.5907113254070282 l-1.9357199966907501,3.9174684882164 -0.7988352328538895,4.604459702968597 l0.0001244244776898995,3.7683790922164917 0.42037278413772583,1.9304612278938293 l1.6517072916030884,3.7912380695343018 2.0397913455963135,2.7485233545303345 l1.497868150472641,1.3259230554103851 3.3190271258354187,1.8270711600780487 l1.9474229216575623,0.5972504243254662 3.3816543221473694,0.3561409190297127 l3.3364585041999817,0.00013090721949993167 3.0938878655433655,-0.7142561674118042 l3.1405875086784363,-1.5145258605480194 4.031553566455841,-3.244265913963318 l2.4378766119480133,-3.0291247367858887 2.3116087913513184,-4.468784928321838 l1.0479006916284561,-3.469589352607727 0.36630161106586456,-3.188939094543457 l-0.00014641632333223242,-3.441942036151886 -0.6433674693107605,-2.7007099986076355 l-1.262393295764923,-2.3603470623493195 -1.7226892709732056,-1.8178412318229675 l-2.183559685945511,-1.4069217443466187 -2.602226734161377,-0.9165259450674057 l-2.651160955429077,-0.3108972869813442 -2.003704309463501,-4.2360907173133455e-05 l-1.5712173283100128,0.41143883019685745 -1.1372415721416473,0.7581532001495361 m12.258667945861816,2.041759341955185 l0.9056047350168228,-0.8668704330921173 2.6358014345169067,-1.3646869361400604 l6.167641878128052,-2.1692246198654175 4.631677567958832,-1.070045530796051 l5.294503569602966,-1.3895389437675476 4.9129098653793335,-1.2614811956882477 l4.4626688957214355,-1.0649226605892181 3.9690494537353516,-1.0096174478530884 l2.70160049200058,5.0698899940471165e-05 2.2288039326667786,0.9584183990955353 l1.0525055229663849,1.0962148010730743 0.39950620383024216,1.2588496506214142 l-0.2470959722995758,1.340092271566391 -1.060410812497139,1.4659155905246735 l-1.855001449584961,1.4694269001483917 -2.6227155327796936,1.3814128935337067 l-4.757928252220154,1.5000689029693604 -10.796043872833252,1.7717388272285461 l-6.912751197814941,1.827407032251358 -7.302579879760742,2.162068337202072 l-1.6403821110725403,0.8036096394062042 m-13.544533252716064,1.3406510651111603 l-1.795610934495926,-0.02833879552781582 -1.253134161233902,0.5404730886220932 l-1.3133218884468079,1.2675459682941437 -0.7462707906961441,1.7023476958274841 l-0.10044082999229431,1.7547503113746643 0.5028185620903969,1.3850726187229156 l0.6924272328615189,0.7533563673496246 2.1955950558185577,1.0959333926439285 l2.9641348123550415,0.25039492174983025 2.0795264840126038,-0.7036133855581284 l1.6309474408626556,-1.3767161965370178 0.8894204348325729,-1.7905828356742859 l0.10753224603831768,-2.061600238084793 -0.7823337614536285,-1.7675605416297913 l-1.463472843170166,-1.204046607017517 -2.025563269853592,-0.5719751492142677 l-2.248392105102539,0.14629199169576168 -1.540783941745758,0.7991830259561539 m-2.7607017755508423,3.608289659023285 l1.9961914420127869,-0.42923036962747574 5.900779962539673,-2.5453072786331177 l7.777461409568787,-3.615944981575012 3.987981379032135,-2.329636365175247 l5.392412543296814,-2.2015410661697388 3.427572548389435,-1.940913200378418 l2.5846654176712036,-0.9447111934423447 2.5587674975395203,-1.5866123139858246 l2.1339142322540283,-0.7525420188903809 1.8407531082630157,-1.239468902349472 m-35.4914927482605,19.214510917663574 l6.2376755475997925,-2.5254136323928833 4.632784128189087,-2.4902455508708954 l6.524102687835693,-2.405666559934616 5.033165216445923,-2.464316189289093 l7.434918284416199,-4.017350375652313 3.3065038919448853,-2.3756499588489532 l2.311873584985733,-1.0279039293527603 m-36.65238857269287,17.60208249092102 l5.554094910621643,-2.0296354591846466 4.642851948738098,-2.3499181866645813 l6.5398335456848145,-2.2623981535434723 4.081813395023346,-1.8734453618526459 l7.888336777687073,-3.920741081237793 6.336779594421387,-3.729773759841919 l2.8100594878196716,-1.0872163623571396 m-37.43612051010132,17.433165311813354 l5.963306427001953,-2.3682987689971924 4.518120288848877,-2.374132126569748 l9.212671518325806,-4.481850862503052 4.160420596599579,-2.544243037700653 l5.245940089225769,-2.1883073449134827 3.4986987709999084,-2.0322012901306152 l2.649933695793152,-0.9222161024808884 m67.93612563619718,-5.001901991277009 l0.38225069642066956,0.15559217892587185 -2.902047038078308,0.5392716079950333 l-4.884053170681,0.6456495076417923 -2.495027631521225,0.6483583897352219 l-2.466115951538086,1.012720912694931 -2.459307461977005,1.452738642692566 l-2.2438369691371918,1.8595494329929352 -2.900208532810211,3.7453582882881165 l-0.9846298396587372,2.1826454997062683 -0.7693777233362198,4.749588072299957 l0.00011446080861787777,4.942700266838074 0.5022719874978065,2.254737615585327 l2.6018565893173218,5.2134716510772705 1.4269784092903137,1.7481501400470734 l1.805156171321869,1.5870161354541779 2.172905057668686,1.2823282182216644 l2.4598444998264313,0.8695721626281738 3.458929657936096,0.4707508161664009 l3.3844339847564697,6.801671588618774e-05 3.123559057712555,-0.6994882971048355 l3.0896177887916565,-1.4407005906105042 4.288579821586609,-3.211108446121216 l2.667580246925354,-2.9882702231407166 2.1677348017692566,-3.3770689368247986 l2.02475905418396,-5.075696706771851 0.7280725985765457,-3.713902235031128 l0.09306645020842552,-3.37857723236084 -0.5773728340864182,-2.803311347961426 l-1.2581877410411835,-2.6165536046028137 -1.7895156145095825,-2.2806186974048615 l-2.231215536594391,-1.818830668926239 -2.7261024713516235,-1.3984669744968414 l-2.9906967282295227,-0.824371948838234 -2.994716763496399,-0.24160468950867653 l-2.1258214116096497,0.30140241608023643 -1.5005232393741608,0.7033354789018631 m-5.813654065132141,10.993822813034058 l-1.1880366504192352,0.21018199622631073 -0.6779706478118896,0.6618198752403259 l-0.5705767124891281,1.4317302405834198 -5.393637366069015e-05,1.5950274467468262 l1.0108307749032974,0.8348347246646881 1.8945503234863281,0.18792737275362015 l1.5336628258228302,-0.7650963217020035 0.9423531591892242,-1.34803906083107 l0.1808437891304493,-1.5765124559402466 -0.6960491836071014,-1.212901994585991 l-1.4151057600975037,-0.7294868677854538 -1.3999156653881073,-0.00011951206033700146 l-0.9919753670692444,0.6191436201334 -0.5838320776820183,1.0712439566850662 l0.06579241715371609,1.2583348155021667 0.5962751060724258,0.5439913645386696 l1.2165362387895584,0.1554555632174015 1.2119414657354355,-0.5703819915652275 l0.7262025028467178,-1.073843240737915 0.033790101297199726,-1.0760743170976639 l-0.7715892791748047,-0.7219558954238892 -1.448245346546173,-0.15330538153648376 l-1.030530408024788,0.566251315176487 -0.5219294875860214,1.0224055498838425 l0.15902776271104813,1.2084516882896423 0.643165186047554,0.4868672415614128 l1.157810464501381,-0.0021757037029601634 1.1246544122695923,-0.7693350315093994 l0.564039945602417,-1.1067251116037369 -0.13650446198880672,-0.9292368590831757 l-0.919123962521553,-0.5590856075286865 -0.9379928559064865,-0.019083746010437608 l-0.7080677896738052,0.5290935561060905 -0.24709245190024376,0.982561931014061 l0.5299978703260422,1.001027524471283 0.7293698191642761,0.28709011152386665 l1.0028082877397537,-0.33336371183395386 0.6412570178508759,-0.9414966404438019 l0.03664253745228052,-0.9520400315523148 -0.6976151466369629,-0.6104075163602829 l-1.2104852497577667,-0.01683881040662527 -0.5006489902734756,0.4551037773489952 l-0.053925043903291225,0.791303962469101 0.612516961991787,0.41520874947309494 l0.7306259870529175,-0.03397730877622962 0.6424782425165176,-0.637158527970314 l0.11247637681663036,-0.8378037065267563 -0.6121243163943291,-0.4842202365398407 l-0.9006174653768539,0.5864179134368896 -0.23628726601600647,0.6711870431900024 l0.5064834654331207,0.34036528319120407 0.6973619759082794,-0.1300949789583683 l0.5698846653103828,-0.6870544701814651 -0.046158405020833015,-0.6444194912910461 l-0.7244877517223358,-0.24697542190551758 -0.45206986367702484,0.41044797748327255 l0.06053694058209658,0.7228586822748184 0.6806569546461105,0.21577872335910797 l0.6081898510456085,-0.2538374811410904 0.2703064866364002,-0.655779242515564 l-0.37091586738824844,-0.5007809400558472 -0.8608108013868332,0.5345353856682777 l-0.20083636045455933,0.730365663766861 0.5672652646899223,0.2937670424580574 l0.6674916297197342,-0.1999983750283718 0.4546644166111946,-0.7155470550060272 l-0.18505940213799477,-0.603388287127018 -0.9657609462738037,0.34875817596912384 l-0.282277949154377,0.6696859002113342 0.5457265302538872,0.2845124900341034 l0.7255998998880386,-0.15201116912066936 0.5247650295495987,-0.6366604566574097 l-0.08724945597350597,-0.553601086139679 -0.7657729089260101,-0.12249629944562912 l-0.43729234486818314,0.45986998826265335 0.5306903272867203,0.375136099755764 l0.8146205544471741,-0.05541278049349785 0.6050385162234306,-0.6212878972291946 l-0.1332916971296072,-0.6038239598274231 -1.0435734689235687,0.40245000272989273 l-0.2991604432463646,0.7003157585859299 0.552772618830204,0.3388971835374832 l0.7548712193965912,-0.08658532984554768 0.5163145065307617,-0.6116510182619095 l-0.19367126747965813,-0.602254793047905 -0.9782034903764725,0.2987939305603504 l-0.3085169568657875,0.6338702142238617 0.5567009374499321,0.3052501566708088 l0.7813846319913864,-0.14115823432803154 0.5050196126103401,-0.6199122220277786 l-0.23986952379345894,-0.5824744328856468 -1.024252250790596,0.3570743650197983 m87.04124881546704,-11.386848755194023 l0.3900926187634468,0.15707777813076973 -2.787761390209198,0.3303113952279091 l-4.579691290855408,0.7388438284397125 -3.262205421924591,0.8831247687339783 l-1.9560426473617554,0.9130580723285675 -2.3114322125911713,1.5470942854881287 l-3.321676552295685,3.4461116790771484 -1.3402217626571655,2.1321043372154236 l-1.8842269480228424,4.814966917037964 -0.6010949984192848,5.228981375694275 l0.00013084468264423776,3.859963119029999 0.9566044807434082,3.5442546010017395 l1.6120754182338715,3.1137025356292725 2.072947472333908,2.5962290167808533 l2.2445859014987946,1.902182400226593 2.4551084637641907,1.3646207749843597 l2.6268133521080017,0.856693834066391 3.563629686832428,0.36410946398973465 l3.2323089241981506,2.3515824523201445e-05 3.256444036960602,-0.8002583682537079 l3.3346012234687805,-1.6870953142642975 3.191491663455963,-2.5358599424362183 l3.759658932685852,-4.58094596862793 1.9634588062763214,-3.754459321498871 l1.284606009721756,-3.7676364183425903 0.6264565140008926,-3.7470808625221252 l-3.857725459965877e-05,-3.9518168568611145 -0.7772102206945419,-3.1767812371253967 l-1.482013463973999,-2.85567045211792 -1.5780895948410034,-2.0566172897815704 l-2.3996181786060333,-2.1146556735038757 -2.7581825852394104,-1.5735302865505219 l-3.029472529888153,-1.0092999041080475 -2.969256341457367,-0.34212831407785416 l-2.0474873483181,0.20539378747344017 -1.5825070440769196,0.6811600178480148 m-6.701798439025879,12.25784420967102 l-0.8988319337368011,0.07278057280927896 -0.5525324121117592,0.5194592848420143 l-0.4205089434981346,1.308896541595459 0.217104721814394,1.4575013518333435 l0.5568544566631317,0.5966639518737793 1.1082373559474945,0.23857945576310158 l1.250474750995636,-0.482083261013031 0.8709240704774857,-1.1851901561021805 l0.2773256227374077,-1.528453677892685 -0.5080758407711983,-1.185099110007286 l-1.2423301488161087,-0.6519357860088348 -1.1450091749429703,-0.019297341350466013 l-0.83900585770607,0.598553940653801 -0.40242839604616165,1.1030684411525726 l0.25145528838038445,1.2340354174375534 0.6034727394580841,0.5133460462093353 l1.6048339009284973,0.18523912876844406 1.2128257006406784,-0.7046297192573547 l0.636541023850441,-1.1045758426189423 -0.052284025587141514,-1.0624708235263824 l-0.8745173364877701,-0.6856129318475723 -1.2204855680465698,8.445211960861343e-06 l-0.8271440863609314,0.6642498821020126 -0.3144342452287674,1.057712510228157 l0.4290415346622467,1.0395624488592148 0.7102252542972565,0.35302814096212387 l1.00330650806427,-0.28340887278318405 0.7227478176355362,-1.0025019198656082 l0.1006751786917448,-1.0421207547187805 -0.6014930084347725,-0.7040463387966156 l-1.2003694474697113,-0.18769171088933945 -0.5534717440605164,0.3942298889160156 l-0.1793392188847065,0.8423548936843872 0.5551281943917274,0.8688218146562576 l0.7056617736816406,0.19262783229351044 0.7845762372016907,-0.45370910316705704 l0.37083864212036133,-0.9237395972013474 -0.23447884246706963,-0.8035184442996979 l-0.8883754909038544,-0.3427521511912346 -0.47386534512043,0.3537162020802498 l-0.02120787277817726,0.7941285520792007 0.5495299398899078,0.3697037324309349 l0.5972637981176376,-0.048357644118368626 0.43642356991767883,-0.6313230097293854 l-0.1018539909273386,-0.7441526651382446 -0.7556571066379547,-0.33024944365024567 l-0.3890540450811386,0.4093554988503456 0.4114029183983803,0.4435794800519943 l0.67691870033741,0.00786779506597668 0.49868911504745483,-0.5654576048254967 l-0.11627670377492905,-0.6030398234724998 -1.0053977370262146,0.25323983281850815 l-0.289338156580925,0.6444736570119858 0.5559620261192322,0.3149890899658203 l0.6952577829360962,-0.15031973831355572 m13.914017677307129,-2.345263957977295 l-0.44925007969141006,0.1878323219716549 -0.28799669817090034,0.750080943107605 l0.3854469209909439,0.34941598773002625 0.5925288796424866,-0.12743101455271244 l0.3323504328727722,-0.7324803620576859 -0.3576044738292694,-0.5694626271724701 l-0.8402884006500244,0.49533661454916 -0.23914247751235962,0.7457315921783447 l0.48535648733377457,0.2928915433585644 0.6341779232025146,-0.17096927389502525 l0.29512541368603706,-0.73028564453125 -0.9169338643550873,0.017208745703101158 l-0.421062707901001,0.56381955742836 -0.08254591375589371,0.5733946710824966 l0.5652470514178276,0.20849986001849174 0.47132931649684906,-0.9529460221529007 l-0.4329501837491989,-0.35488951951265335 -0.6871606409549713,0.6543046981096268 l-0.1565285585820675,0.7482607662677765 0.5256360769271851,0.20650938153266907 l0.6066348403692245,-0.28854187577962875 0.18802132457494736,-0.7080408930778503 l-0.8516112715005875,0.06816812325268984 -0.40530581027269363,0.5761050805449486 l0.7940025627613068,-0.04135909955948591 0.19151942804455757,-0.5421552062034607 l-0.7232964783906937,0.08560857735574245 -0.36439884454011917,0.5661759525537491 l0.688357800245285,-0.04859453532844782 0.2009127102792263,-0.5063889920711517 l-0.6000996008515358,0.097850002348423 -0.31555794179439545,0.5745158717036247 l0.6064713001251221,-0.0934833288192749 m-10.659465789794922,8.957232236862183 l-0.7450593262910843,0.18378285691142082 -5.254594087600708,0.570969246327877 m91.61350090085307,-19.350205356757897 l0.34769922494888306,0.1453039888292551 -2.628324031829834,0.12433179654181004 l-4.184954762458801,0.8038747310638428 -3.3780258893966675,1.2019918113946915 l-2.043750286102295,1.1578335613012314 -2.36869677901268,1.8809318542480469 l-3.1167367100715637,3.785896897315979 -1.2625163793563843,2.3653143644332886 l-1.661350429058075,5.150459408760071 -0.41771557182073593,5.563924312591553 l0.2797158807516098,2.5449877977371216 1.4563162624835968,4.805001318454742 l1.8383288383483887,3.2876718044281006 1.961226612329483,2.3524408042430878 l2.205982506275177,1.7854578793048859 2.4403588473796844,1.2383420765399933 l2.7001869678497314,0.7321647554636002 3.8033270835876465,0.12493973597884178 l3.1231847405433655,-0.6627558916807175 3.2814809679985046,-1.4590747654438019 l3.3550819754600525,-2.2648711502552032 4.020283818244934,-3.9834722876548767 l2.3632846772670746,-3.4019404649734497 1.798568069934845,-3.592867851257324 l1.1471400409936905,-3.685314655303955 0.4423839971423149,-3.6992818117141724 l-0.1902143843472004,-3.5449570417404175 -1.093989536166191,-3.2992345094680786 l-1.9038984179496765,-3.08945894241333 -2.5336483120918274,-2.61149525642395 l-2.9533642530441284,-2.0292313396930695 -3.1489408016204834,-1.3772815465927124 l-3.309117555618286,-0.73513463139534 -3.0873870849609375,-0.006415334646590054 m8.991778492927551,1.8067660927772522 l0.5541209876537323,-1.1889264732599258 2.143065184354782,-2.1298672258853912 l2.9180020093917847,-2.178187519311905 2.973182499408722,-1.520625501871109 l2.3211605846881866,-0.4410836473107338 0.3170612081885338,0.689309686422348 l-0.3436942771077156,2.2589360177516937 -3.9864182472229004,9.146717190742493 l-0.65336674451828,2.9237982630729675 m-26.408514976501465,-5.2280426025390625 l-1.13802932202816,-1.2150529772043228 -1.6607080399990082,-1.002432256937027 l-5.157524943351746,-2.7107536792755127 -2.0056483149528503,-0.5822740495204926 l-0.4324672743678093,0.5906640365719795 0.010253061773255467,1.3959595561027527 l1.243455559015274,4.322594404220581 1.866052895784378,3.9130255579948425 l2.0519237220287323,2.790670394897461 m10.85638165473938,2.2586797177791595 l-0.9112884104251862,0.09490098804235458 -0.627870112657547,0.7326067239046097 l-0.3794955462217331,1.3852660357952118 0.30633894726634026,0.6528045237064362 l0.9577484428882599,0.42386405169963837 0.7773569971323013,-0.12854577042162418 l0.7537243515253067,-0.8298667520284653 0.27135197073221207,-1.2895554304122925 l-0.4391654208302498,-0.9352736920118332 -1.1177115887403488,-0.44889677315950394 l-0.5823592469096184,0.2841204032301903 -0.2543875016272068,0.8333252370357513 l0.4567178338766098,0.4714667797088623 0.6606826186180115,0.049878680147230625 l0.5807009339332581,-0.5570158362388611 0.07166643161326647,-0.8095887303352356 l-0.60633335262537,-0.47767892479896545 -0.4701058939099312,0.28351500630378723 l-0.10056544095277786,0.7941825687885284 0.46683721244335175,0.315169095993042 l0.49341633915901184,-0.13102348893880844 0.1775551214814186,-0.6294394284486771 l-0.430159829556942,-0.46672724187374115 -0.5655201897025108,0.4675006866455078 l-0.08377137593924999,0.6775125861167908 0.4982032999396324,0.22238146513700485 l0.45863237231969833,-0.24125240743160248 0.14127623289823532,-0.6864494830369949 l-0.7010853290557861,0.0955800712108612 -0.24132370948791504,0.6279774010181427 l0.48424772918224335,0.26571234688162804 0.5162140354514122,-0.21857863292098045 l0.1784905046224594,-0.6978444755077362 -0.47804366797208786,-0.41195668280124664 l-0.38601044565439224,0.38722407072782516 0.37137866020202637,0.37960853427648544 m11.742963790893555,-1.9079932570457458 l-0.4756217822432518,0.41236910969018936 -0.1574333757162094,0.7555652409791946 l0.45674800872802734,0.26538513600826263 0.3181745484471321,-0.5872656032443047 l-0.12641978450119495,-0.8467060327529907 -0.7383278012275696,-0.18609387800097466 l-0.3954436630010605,0.5014468729496002 0.00013561028936237562,0.8095771074295044 l0.5301202833652496,0.29836803674697876 0.5108121782541275,-0.18948199227452278 l0.19044877961277962,-0.7094281166791916 -0.4801890254020691,-0.46480536460876465 l-0.6171276792883873,0.5929608643054962 -0.11576157994568348,0.7340116053819656 l0.8075249195098877,-0.31952105462551117 -0.2864799275994301,-0.2578602358698845 l-0.43025512248277664,0.38461625576019287 -0.11612764559686184,0.5538992583751678 l0.6213511154055595,-0.3933732211589813 -0.39759352803230286,0.028740463312715292 l-0.27605244889855385,0.5656593665480614 0.531860738992691,-0.33328309655189514 l-0.3671903908252716,0.09628896601498127 -0.25812938809394836,0.567871555685997 l0.43757323175668716,-0.33679861575365067 -0.2634679712355137,0.19980788230895996 l0.2750272862613201,0.37407103925943375 0.2709907852113247,-0.37261277437210083 l-0.5114902555942535,0.3089945577085018 -0.15716683119535446,0.5106113106012344 l0.5091682821512222,-0.3364933282136917 -0.2437908947467804,0.1397433876991272 l-0.024919721763581038,0.5600373446941376 m-6.734394431114197,9.015961289405823 l0.7652859389781952,1.5887528657913208 1.2859590351581573,0.7850924879312515 l5.556473731994629,-0.9306002408266068 m70.27435273039373,-26.52824482824144 l0.27507951483130455,0.1285907533019781 -2.447396069765091,-0.056669870391488075 l-3.765609860420227,0.8042751997709274 -3.3966413140296936,1.563696563243866 l-2.459920644760132,1.728842854499817 -1.7107932269573212,1.6734254360198975 l-2.7966463565826416,4.065225124359131 -1.900884062051773,4.98225599527359 l-0.576944537460804,2.9652318358421326 0.0001688347037998028,5.9594643115997314 l0.5730890855193138,2.702292799949646 2.754944860935211,6.316042542457581 l1.5016163885593414,2.05839142203331 1.8731626868247986,1.8059048056602478 l2.194749116897583,1.404399424791336 2.444923520088196,0.9158069640398026 l2.7076441049575806,0.4099169000983238 3.5859546065330505,-5.6878743635024875e-05 l3.41156542301178,-0.9974997490644455 3.594030439853668,-2.0110508799552917 l3.324100375175476,-2.8251251578330994 3.748190999031067,-4.716725051403046 l1.9137929379940033,-3.768082559108734 1.125863566994667,-3.710910379886627 l0.4510723799467087,-3.675701320171356 -0.15064245089888573,-3.550291955471039 l-0.9909869730472565,-3.3211731910705566 -1.7713198065757751,-3.1187641620635986 l-2.4437491595745087,-2.8070515394210815 -2.9277056455612183,-2.262168824672699 l-3.2548755407333374,-1.6887924075126648 -3.3019202947616577,-0.9500635415315628 l-3.3805835247039795,-0.28599904850125313 m8.09747040271759,1.4948390424251556 l0.5953565239906311,-1.072724610567093 2.321740984916687,-2.0266833901405334 l3.067283034324646,-2.0825664699077606 2.8037336468696594,-1.188255026936531 l0.32633204013109207,0.724826455116272 -2.081242799758911,10.709400177001953 l-0.12583894655108452,2.949512302875519 m-25.31047821044922,-5.935255289077759 l-1.0362420231103897,-1.1861089617013931 -4.419195652008057,-4.328170418739319 l-1.8594764173030853,-1.11638143658638 -0.465860515832901,0.5563110113143921 l-0.05821879953145981,1.3243043422698975 0.7951140403747559,4.733681082725525 l1.330285370349884,4.9016886949539185 m10.52865982055664,5.883917808532715 l-0.77304407954216,0.10570652782917023 -0.5385598912835121,0.7642658799886703 l-0.2269863337278366,1.3807441294193268 0.36177482455968857,0.5693304911255836 l1.0149075835943222,-0.0002316076097486075 0.8944838494062424,-0.8606202155351639 l0.3393890708684921,-1.2506085634231567 -0.3537994995713234,-0.8807659149169922 l-1.0337639600038528,-0.3790106996893883 -0.5443961918354034,0.2920626662671566 l-0.23525899276137352,0.8225612342357635 0.4437175765633583,0.46384405344724655 l0.6194622069597244,0.04322719294577837 0.48949431627988815,-0.5275228247046471 l-0.05526246037334204,-0.7731025665998459 -0.7642019540071487,-0.3629126399755478 l-0.4831072688102722,0.6765098869800568 0.3541136160492897,0.46444710344076157 l0.5938194319605827,0.0010918829502770677 0.43671343475580215,-0.5667896568775177 l-0.18174488097429276,-0.6046834960579872 -0.6933656334877014,0.23792840540409088 l-0.22156434133648872,0.6328865140676498 0.45351848006248474,0.3000422939658165 l0.5146331712603569,-0.1847253367304802 0.2001458965241909,-0.7073508203029633 l-0.5008268356323242,-0.4177491366863251 -0.37265606224536896,0.36044035106897354 l0.11742956936359406,0.7687520235776901 0.5035499855875969,0.17461050301790237 l0.3888661786913872,-0.2812950499355793 -0.016115764155983925,-0.7319509983062744 l-0.6340985745191574,0.19416995346546173 -0.1508777868002653,0.6612234562635422 l0.4867935925722122,0.2034434862434864 0.48037707805633545,-0.23361662402749062 l0.10995229706168175,-0.6643884629011154 -0.6967037916183472,0.20351827144622803 l-0.22067038342356682,0.6466632336378098 m11.505838632583618,-2.229313999414444 l-0.6188762560486794,0.9990809857845306 -0.052128396928310394,0.9933584928512573 l0.468100905418396,0.3046468086540699 0.6462781131267548,-0.5334414541721344 l0.21574219688773155,-1.0742690414190292 -0.48239145427942276,-0.5048004910349846 l-0.6968885660171509,0.7085417956113815 -0.14007245190441608,0.8269530534744263 l0.4479679465293884,0.30677469447255135 0.5035587027668953,-0.1846303977072239 l0.26124153286218643,-0.7661185413599014 -0.3805798292160034,-0.5104212462902069 l-0.660107284784317,0.624573640525341 -0.10507278144359589,0.7519552111625671 l0.48171035945415497,0.19883578643202782 0.4792558401823044,-0.23250749334692955 l0.14505642466247082,-0.6062277406454086 -0.4658700153231621,-0.35399604588747025 l-0.4221108928322792,0.3543331101536751 0.00015765852367621846,0.8368659019470215 l0.641760528087616,-0.46222180128097534 -0.4236523061990738,0.1462600752711296 l-0.10840057395398617,0.7253462821245193 0.4216614365577698,-0.5303870141506195 m-8.155936598777771,9.520214796066284 l0.6969801336526871,1.4667324721813202 1.3211515545845032,0.8120152354240417 l1.668354570865631,-0.0002324277738807723 1.308475285768509,-0.8758836984634399 l0.8374635875225067,-1.3726690411567688 0.14216101728379726,-1.325981318950653 l-0.8010131865739822,-0.8782213181257248 -1.8065352737903595,-0.4083779826760292 l-2.258634716272354,0.8533380180597305 -1.3130757212638855,1.265692561864853 l-0.5451605468988419,1.401759684085846 m5.180760025978088,-1.1498136073350906 l6.655371189117432,-2.4003714323043823 17.797014713287354,-5.968121290206909 m57.121765976546044,-14.96651723157811 l0.17356125637888908,0.09844411164522171 -2.231012135744095,-0.25335101410746574 l-3.312116861343384,0.8984957635402679 -3.3392271399497986,1.958933174610138 l-1.9116216897964478,1.6055460274219513 -3.0526506900787354,3.7829574942588806 l-1.3150078058242798,2.4515828490257263 -1.3899362087249756,4.994561672210693 l-0.4769549146294594,6.016172170639038 0.3402393311262131,5.543718934059143 l0.6654995679855347,2.4226996302604675 1.9830934703350067,4.1156089305877686 l2.0087221264839172,2.411837875843048 2.2563961148262024,1.7084836959838867 l2.495698183774948,1.1600719392299652 3.495873510837555,0.57721346616745 l3.808254599571228,-0.00010338329957448877 3.313440680503845,-0.8981321007013321 l3.253588080406189,-1.7655624449253082 3.0288076400756836,-2.560805082321167 l2.6402169466018677,-3.317883312702179 2.087457776069641,-3.8284802436828613 l1.6444529592990875,-5.664971470832825 0.34014828503131866,-4.227601587772369 l-0.3727937862277031,-3.8900208473205566 -1.2627117335796356,-3.524710536003113 l-3.068351447582245,-4.662410616874695 -2.8214481472969055,-2.530619204044342 l-3.063742220401764,-1.7741426825523376 -3.1360724568367004,-0.9742448478937149 l-4.635342955589294,-0.3954142704606056 m7.6564037799835205,1.179521381855011 l0.46927645802497864,-1.0421614348888397 1.9967782497406006,-1.9504788517951965 l2.9956603050231934,-2.2769413888454437 2.823658287525177,-1.4174860715866089 l0.3423088416457176,0.6722091138362885 -0.00023201278963824734,4.3798744678497314 l-0.48333652317523956,6.48273766040802 m-24.523286819458008,-2.093786746263504 l-0.8944734185934067,-1.1246304214000702 -3.6055442690849304,-4.477624893188477 l-1.5985839068889618,-1.176874041557312 -0.4192238301038742,0.5794290825724602 l-0.11514351703226566,3.4474995732307434 0.8184711635112762,6.211985349655151 l0.6315308064222336,1.5594913065433502 m11.136038303375244,5.7786184549331665 l-0.7036204636096954,0.0860944390296936 -0.4782291501760483,0.7548512518405914 l-0.14365176670253277,1.3281777501106262 0.42842838913202286,0.49411196261644363 l0.8813032507896423,0.05534002557396889 0.8188734948635101,-0.7226647436618805 l0.31824763864278793,-1.1960630863904953 -0.40493201464414597,-0.9373848140239716 l-1.0305605083703995,-0.4081675782799721 -0.47081273049116135,0.3214596211910248 l-0.07716984488070011,0.8148829638957977 0.483403280377388,0.38222722709178925 l0.5322727188467979,-0.04643780179321766 0.3228038176894188,-0.6376317143440247 l-0.24523889645934105,-0.6743935495615005 -0.6121060252189636,0.2282414399087429 l-0.20190967246890068,0.645633265376091 0.44909238815307617,0.31031716614961624 l0.5122451856732368,-0.12338709086179733 0.2110365591943264,-0.6466381251811981 l-0.4391052946448326,-0.5093862488865852 m10.920287370681763,-1.4181843400001526 l-0.5908023938536644,0.2962246909737587 -0.3016865998506546,0.7262931019067764 l2.9371932441790705e-06,0.8838804066181183 0.7121259719133377,0.2848203107714653 l0.5519060418009758,-1.2043314427137375 -0.7505758106708527,-0.2739289216697216 l-0.3973592072725296,0.4831111431121826 0.659300908446312,0.012474776012822986 l-0.2565465122461319,-0.17503170296549797 -0.3479636088013649,0.40953997522592545 l-0.03656644141301513,0.557640865445137 0.5367348715662956,-0.5096713826060295 l-0.40399089455604553,0.010692946380004287 -0.2408023178577423,0.48677630722522736 l0.40436647832393646,-0.24430006742477417 -0.27811363339424133,0.07761185057461262 l-0.16350969672203064,0.4188874363899231 0.33930473029613495,-0.3006524406373501 l-0.2647028863430023,0.23487428203225136 0.00020284300262574106,0.5765892192721367 m-7.574673891067505,9.240941405296326 l0.5892367660999298,1.3558579981327057 1.1078989505767822,1.0366471111774445 l2.9612210392951965,0.9206458926200867 1.5935282409191132,-0.34836843609809875 l1.3014376163482666,-1.1258543282747269 0.8604747802019119,-1.7265410721302032 l0.14202659018337727,-1.4958196878433228 m-6.897494196891785,2.328907996416092 l-0.203526820987463,2.3805370926856995 -0.6376311182975769,1.6633041203022003 l-0.8341866731643677,0.9082941710948944 -1.0908349603414536,0.4563021659851074 l-1.2898381054401398,0.006411522626876831 -2.3710374534130096,-1.169145181775093 l-0.5737990140914917,-0.9690740704536438 -0.15027143992483616,-1.7080345749855042 m11.676206588745117,-4.347440004348755 l8.547984957695007,-2.5011107325553894 12.581632137298584,-2.9908588528633118 m-20.07256269454956,8.222318887710571 l13.990246057510376,0.8287902921438217 3.9171910285949707,0.647236630320549 m-17.140008211135864,1.2100006639957428 l11.988469362258911,4.738534390926361 3.3034929633140564,1.7968320846557617 m-27.467350959777832,-11.957135200500488 l-5.512550473213196,-1.2984603643417358 -8.766059875488281,-0.7836155593395233 l-4.551385343074799,-0.2858682721853256 m18.500593900680542,5.261519551277161 l-11.713244915008545,2.591102719306946 -4.404432773590088,1.5919755399227142 m15.844045877456665,-0.7723852246999741 l-9.368988275527954,5.829676389694214 -2.893705368041992,2.440117448568344 m15.644216537475586,-20.853617191314697 l-0.7121112197637558,0.4466569796204567 m8.752102255821228,-1.0644227266311646 m73.62517082132399,-15.844494808943637 l0.034436655696481466,0.06638635881245136 -1.9989991188049316,-0.4453699290752411 l-2.824605107307434,0.8979263156652451 -3.149813711643219,2.3485107719898224 l-1.7340496182441711,1.861499398946762 -2.6735898852348328,4.160044491291046 l-1.1729497462511063,2.7751952409744263 -1.0853169113397598,5.8728402853012085 l-0.08079170249402523,6.145761013031006 0.501079373061657,2.6766470074653625 l1.7577582597732544,4.556524157524109 1.9373048841953278,2.813798189163208 l2.142205685377121,1.9845809042453766 2.3772725462913513,1.3944801688194275 l2.5906550884246826,0.7792772352695465 4.460424184799194,0.09401597082614899 l3.380914330482483,-1.0127998143434525 3.2344642281532288,-1.807159036397934 l2.9589027166366577,-2.597024440765381 2.4261856079101562,-3.2338181138038635 l1.7697103321552277,-3.5933157801628113 1.0229416191577911,-3.8840195536613464 l0.2972465008497238,-6.012992262840271 -0.7297927141189575,-3.8752293586730957 l-1.5288081765174866,-3.4922727942466736 -2.3573866486549377,-3.229592740535736 l-4.2075735330581665,-3.484635651111603 -3.2823729515075684,-1.565813422203064 l-3.2479453086853027,-0.6787209212779999 m-12.836674451828003,8.26452374458313 l-0.6327448785305023,-1.032692864537239 -0.7914959639310837,-9.83884572982788 l3.262123465538025,1.5549972653388977 3.994314670562744,2.7613282203674316 l1.6779263317584991,0.5413678288459778 m12.020666599273682,0.05563287530094385 l0.8006434887647629,-1.097225621342659 2.4468185007572174,-1.98120579123497 l2.9635119438171387,-1.8129824101924896 2.623654305934906,-0.9332126379013062 l1.2708249688148499,-0.02357874996960163 0.5535785481333733,0.5779371783137321 l-2.7240500344305474e-06,2.9649561643600464 -1.5786458551883698,5.8300721645355225 l-1.1233405768871307,2.63264000415802 m-19.290850162506104,6.86931312084198 l-0.5595944821834564,0.4484093561768532 -0.20738767459988594,1.030852049589157 l0.35108163952827454,0.4642392322421074 0.6449509412050247,0.057503278367221355 l0.5884476751089096,-0.6696504354476929 0.11912623420357704,-1.118013709783554 l-0.5593354254961014,-0.6651310622692108 -0.5518670380115509,0.4699442535638809 l-0.1279858686029911,0.7313758134841919 0.4327487200498581,0.3360973671078682 l0.4700545221567154,-0.14654135331511497 0.20457370206713676,-0.6984291225671768 l-0.3967774659395218,-0.6045299395918846 -0.5245466157793999,0.3951592743396759 l-0.08461239747703075,0.655655562877655 m11.32145881652832,-2.47262179851532 l-0.6031142547726631,0.5053479224443436 -0.19250387325882912,0.7901696860790253 l0.42629778385162354,0.3300251439213753 0.5486917868256569,-0.1950678415596485 l0.31534813344478607,-0.7453843951225281 -0.2529020793735981,-0.5241849645972252 l-0.6102706864476204,0.45869577676057816 -0.16214260831475258,0.740162581205368 l0.4735999181866646,0.28881728649139404 0.5005964264273643,-0.1794235035777092 l0.19408252090215683,-0.64043328166008 -0.4148971661925316,-0.44376417994499207 l-0.4022321105003357,0.3353964537382126 -0.09434164501726627,0.6035206094384193 l0.4844779148697853,0.21055012941360474 0.47730714082717896,-0.23224173113703728 l0.00014282330994319636,-0.4555148258805275 -0.62027208507061,-0.21629828959703445 l-0.35703107714653015,0.41341062635183334 0.00011516496670083143,0.6347833573818207 l0.49658171832561493,0.1806553453207016 0.47955840826034546,-0.27963217347860336 l-0.27805786579847336,-0.3809315711259842 -0.392657145857811,0.16910500824451447 l-0.1248878613114357,0.48530440777540207 m-6.863694190979004,10.173389911651611 l-0.5106524005532265,0.11004292406141758 -2.4684643745422363,0.4404958710074425 l-1.03080153465271,0.16342131420969963 -1.6754448413848877,0.29351193457841873 l-2.802625596523285,0.9309207648038864 -1.5801213681697845,0.949927493929863 l-1.8053115904331207,2.0139136910438538 m11.717349290847778,-2.8692519664764404 l-8.061125874519348,4.84715610742569 -1.8732863664627075,1.7938368022441864 m10.46255350112915,-4.407228529453278 l-3.381669521331787,2.989773750305176 -2.5551053881645203,3.307000994682312 m11.330692768096924,-12.369225025177002 l6.071324944496155,-0.6281038373708725 3.227100670337677,0.10002981871366501 m-10.274105072021484,4.0737855434417725 l6.646196246147156,-0.4766112193465233 m-6.865914463996887,3.782419264316559 l8.914461731910706,0.11890705674886703 m-15.166069269180298,-9.302403926849365 l-0.14301056042313576,0.2097494900226593 m6.476747393608093,-1.1288083344697952 l-0.00036803459806833416,-0.0002744899938988965 m-6.82356595993042,6.228333115577698 l1.1887423694133759,1.4832617342472076 1.378120332956314,0.6983359903097153 l1.875317543745041,0.007371482206508517 1.8799678981304169,-1.0884269326925278 m-6.322624087333679,-2.312886565923691 l-2.8298842906951904,0.3198252245783806 -2.915647029876709,-0.20684154704213142 m6.576871275901794,1.3750208914279938 l-3.93854558467865,2.1924199163913727 m4.46958988904953,-0.9926140308380127 l-2.636183500289917,4.1825637221336365 " fill="none" stroke="black" stroke-width="1" /></svg>