<?xml version="1.0" encoding="utf-8" ?>
<svg baseProfile="full" height="94.40763647675794" version="1.1" width="856.1442397154906" xmlns="http://www.w3.org/2000/svg" xmlns:ev="http://www.w3.org/2001/xml-events" xmlns:xlink="http://www.w3.org/1999/xlink"><defs /><rect fill="white" height="94.40763647675794" width="856.1442397154906" x="0" y="0" /><path d="M25,25 m0.0,0.0 m23.89301508608696,20.308048188553585 l0.005055283545516431,-0.07304204627871513 0.02808492397889495,-2.871851325035095 l0.19396964460611343,-1.708037555217743 0.4420844092965126,-0.05655691958963871 l1.515038013458252,2.5131186842918396 1.3470155000686646,1.4685656130313873 l4.526894986629486,-1.7992690205574036 2.463139295578003,0.540304109454155 l0.7791349291801453,-2.28316068649292 1.4970959722995758,-2.013210505247116 l0.43844878673553467,0.400143563747406 1.0532314330339432,4.098283052444458 l0.5552338063716888,2.590288519859314 -0.00016285865058307536,2.730533480644226 l-1.0857704281806946,1.8074510991573334 -2.002215087413788,1.344139724969864 l-2.906995713710785,0.7606980949640274 -3.624134361743927,-0.00011820228792203125 l-3.094855844974518,-1.0169577598571777 -1.9590622186660767,-1.3991707563400269 l-1.1682572215795517,-1.713518351316452 -0.37593621760606766,-1.7518854141235352 l0.40219973772764206,-1.5224115550518036 0.6793147325515747,-0.5557757988572121 m5.304594039916992,3.5253944993019104 l0.11350419372320175,0.09320561774075031 0.28494492173194885,-0.13733099214732647 l0.19333640113472939,-0.022984712850302458 -0.016290548956021667,6.993470378802158e-05 l-0.38417190313339233,0.00010993246178259142 0.15834886580705643,0.09339540265500546 l0.055261882953345776,-0.06202872842550278 -0.045374142937362194,-0.22671064361929893 l-0.1547104585915804,0.18924254924058914 0.20149379968643188,0.17931032925844193 l0.035322424955666065,-0.10960502550005913 m1.3171865046024323,-0.3155374526977539 l4.851173758506775,-1.2431443482637405 4.678332805633545,-1.2760029733181 m-9.22128140926361,3.145270049571991 l3.9416587352752686,0.5409324169158936 2.2365640103816986,0.8495555818080902 l2.6947584748268127,1.8414464592933655 m-11.706867218017578,-3.2605987787246704 l-3.4285035729408264,-1.0922392457723618 -2.961968779563904,-0.8451731503009796 l-2.5375092029571533,-0.2759769558906555 -0.9264593571424484,0.24075107648968697 l-0.7361899316310883,0.7358366996049881 m10.877320766448975,1.5875531733036041 l-1.5083812177181244,0.005667292862199247 -2.57479727268219,0.8242381364107132 l-3.935616910457611,2.245676964521408 -1.2295939773321152,1.1532289534807205 l-0.5166128277778625,1.0883082449436188 m10.734657049179077,-3.800143599510193 l0.4208216816186905,0.1213600393384695 0.7697582244873047,-0.0006577678868779913 l2.8665250539779663,-0.060348669067025185 2.7468261122703552,-0.206857081502676 l1.973726898431778,-0.03935025539249182 4.759320616722107,0.5394164472818375 l2.8895780444145203,0.14586221426725388 2.2115369141101837,-0.4139595478773117 l1.9174416363239288,-0.6903974711894989 1.4147965610027313,-1.4216195046901703 l1.9522079825401306,-4.675965905189514 0.7728982716798782,-2.4364855885505676 l0.6109456717967987,-1.709345281124115 0.6842537224292755,-1.2445616722106934 l1.3414442539215088,-1.481124758720398 1.4781272411346436,-0.752243846654892 l1.5555524826049805,-0.16363367438316345 1.340240091085434,0.5295485630631447 l0.9651485830545425,1.2597738206386566 0.3945431485772133,1.3686971366405487 l-0.2978423982858658,3.0666005611419678 -1.8417172133922577,3.6600014567375183 l-3.000252842903137,3.139565885066986 -0.9891737997531891,1.8519845604896545 l-1.174425408244133,2.9983484745025635 -1.3381277024745941,3.3088117837905884 l-2.0444002747535706,4.085284769535065 -1.3755594193935394,1.6669394075870514 l-1.2836714088916779,0.7685793936252594 -1.4303211867809296,0.19295485690236092 l-2.6153582334518433,-0.8398853987455368 -1.401546448469162,-1.2748385965824127 l-1.5470920503139496,-2.7314218878746033 -0.35918381065130234,-2.0809754729270935 l-1.1333262920379639,0.9320185333490372 -1.0620120912790298,2.219174951314926 l-1.1242490261793137,1.1158893257379532 -1.0312888771295547,0.44550783932209015 l-1.7655186355113983,-0.19868401810526848 -1.3860684633255005,-1.2979429960250854 l-0.7919291406869888,-1.9786061346530914 m83.79935821569234,-8.371213289892694 l0.10257164016366005,-0.03972549922764301 0.28290828689932823,-3.494825065135956 l0.3699188306927681,-1.5235674381256104 0.3448813781142235,-0.49323130398988724 l0.4314223676919937,-0.028987708501517773 1.7687378823757172,2.0977258682250977 l1.46620512008667,2.638457417488098 3.528680205345154,-1.239355280995369 l2.7548420429229736,0.10583478026092052 0.8477208018302917,-2.58208692073822 l1.4891690015792847,-2.0805272459983826 0.4830170050263405,0.27478231117129326 l1.0932710021734238,3.9665788412094116 0.7509205490350723,2.290162891149521 l0.5679770931601524,1.1623050272464752 0.1057740394026041,1.282593309879303 l-0.43389149010181427,1.3834156095981598 -2.0523391664028168,2.331768721342087 l-2.6675111055374146,1.3347984850406647 -3.6976730823516846,0.568869449198246 l-4.4563499093055725,-0.00028402500902302563 -3.147047758102417,-1.3056957721710205 l-1.006322056055069,-1.0069216042757034 -0.6797537207603455,-1.6699546575546265 l0.00020275670976843685,-2.016340345144272 0.5002808570861816,-1.0083144903182983 l1.2594552338123322,-0.9088806062936783 m4.255057275295258,3.450952172279358 l-3.556045889854431,-0.026569059118628502 -2.8845512866973877,0.03328466787934303 l-4.191002249717712,0.595792718231678 -1.966247409582138,0.7657977938652039 l-1.1855654418468475,1.0135331749916077 -0.5352338030934334,1.244550496339798 l0.11988257989287376,1.2643583118915558 0.560498796403408,0.6510350853204727 l2.406715601682663,1.0674681514501572 3.9655575156211853,0.5295174196362495 l4.421214163303375,8.666679605084937e-05 4.292819797992706,-1.18231862783432 l2.1795599162578583,-1.3293002545833588 0.9665478765964508,-1.4473432302474976 l0.0023592270736116916,-0.7574854791164398 -0.4347963258624077,-0.3908134624361992 m-16.03236436843872,3.025483191013336 l-1.546006202697754,3.0557045340538025 -0.41512150317430496,1.7766538262367249 l0.14917046763002872,0.6990054994821548 0.7338099926710129,0.46765875071287155 l1.2672504782676697,-0.0754825072363019 1.4070548117160797,-0.990125983953476 l1.0006514191627502,-1.6595958173274994 0.0003720555469044484,-1.6355936229228973 m6.0648661851882935,-0.20052943378686905 l-0.4859502241015434,3.6205098032951355 0.36965563893318176,0.8734544366598129 l0.6122118607163429,0.3298131003975868 1.06232650578022,-0.22537298500537872 l0.950503870844841,-1.105581447482109 0.5356338992714882,-1.773991733789444 l0.0003531179390847683,-1.781008094549179 m4.082046151161194,-0.5842211842536926 l0.2955455332994461,3.2370173931121826 0.5405121669173241,0.9803099930286407 l0.5660471320152283,0.26065168902277946 0.8730412274599075,-0.4745464026927948 l0.6656007468700409,-1.4831963181495667 0.0003452208693488501,-2.061288356781006 l-0.7703082263469696,-1.4094643294811249 m2.626132369041443,-1.7884010076522827 l0.5615180358290672,2.2082312405109406 1.377132087945938,1.6852569580078125 l1.3135771453380585,-0.2740508131682873 0.3555693104863167,-1.8116287887096405 l-0.5017461627721786,-1.8286734819412231 -1.26265749335289,-1.1810201406478882 m-12.003957033157349,-4.693055152893066 l-0.6312043964862823,0.03149179508909583 -3.552696108818054,-0.734819620847702 l-2.020801454782486,-0.8121687173843384 -3.9501017332077026,-2.6903682947158813 l-1.4999361336231232,-1.6372579336166382 -1.5427413582801819,-2.7304837107658386 l-0.5081908404827118,-1.665179580450058 -0.026220467407256365,-1.5665952861309052 l0.6750050187110901,-1.4534074068069458 1.458885818719864,-1.2579511106014252 l1.9425670802593231,-0.7039245963096619 2.021213471889496,0.007671500789001584 l1.6690894961357117,0.8618772774934769 1.0912902653217316,1.2075881659984589 l1.1792919039726257,2.7973830699920654 0.7492892444133759,4.040251970291138 l1.3584023714065552,3.477036952972412 0.7819833606481552,1.0938617587089539 m79.10365793876281,1.3331489718984812 l0.17244474962353706,-0.01645595533773303 0.5396430566906929,-3.689950108528137 l0.45777540653944016,-1.7432725429534912 0.27490898966789246,-0.552687756717205 l0.4826217517256737,-0.2526479586958885 1.0774189233779907,0.3352043777704239 l1.302562654018402,3.027171492576599 0.8799296617507935,1.8142463266849518 l0.5366915091872215,0.21442508324980736 5.303665995597839,-1.4904965460300446 l2.2511884570121765,-0.05367326084524393 0.8130638301372528,-2.1193374693393707 l1.1907625198364258,-1.9469042122364044 0.9940464049577713,2.6098856329917908 l0.881878212094307,2.8832513093948364 0.8140724897384644,0.9642121940851212 l0.8457924425601959,1.5469925105571747 -8.282063390652183e-05,1.877458244562149 l-0.6678958237171173,1.640382707118988 -1.790684163570404,1.5892457962036133 l-3.044261932373047,1.2633110582828522 -7.373673915863037,0.8168193697929382 l-3.975529968738556,-0.7001657783985138 -2.693265378475189,-1.3607290387153625 l-1.4978666603565216,-1.5548382699489594 -0.6893464177846909,-1.7817963659763336 l0.07680797949433327,-1.7565710842609406 0.965137854218483,-1.619626134634018 l0.9520645439624786,-0.6101174280047417 0.9388179332017899,-0.13892806135118008 m4.044181406497955,4.507781565189362 l-3.5705363750457764,-0.04618898034095764 -3.5738930106163025,-0.026486101560294628 l-7.480695843696594,0.47460827976465225 -2.741178870201111,0.9871438145637512 l-1.4383858442306519,1.1848263442516327 -0.4979993402957916,0.8989686518907547 l5.450770004244987e-05,1.383633315563202 0.5243883281946182,0.7590712606906891 l1.1406973749399185,0.7738672196865082 3.0212104320526123,0.7564674317836761 l4.786780476570129,0.32748114317655563 8.76994013786316,-0.8694177120923996 l4.107667803764343,-1.2385496497154236 1.5756970643997192,-0.9856102615594864 l0.45304112136363983,-0.7348001003265381 -0.13497845269739628,-0.5354198440909386 l-0.8456084132194519,-0.4368811473250389 m-20.712604522705078,3.0354583263397217 l-1.0638082027435303,4.032275974750519 0.00023137406969908625,2.82734751701355 l0.4003666713833809,0.6046538054943085 0.9935411810874939,0.15194340609014034 l1.408856362104416,-0.7501230388879776 1.1716020852327347,-1.6624875366687775 l0.6134895235300064,-2.1820877492427826 -0.11588911525905132,-3.033389449119568 m5.751149654388428,1.4964184165000916 l-0.2996446006000042,4.468671679496765 0.3748517483472824,1.0076015442609787 l0.6082446500658989,0.44809814542531967 1.1302903294563293,-0.16960667446255684 l1.0446038842201233,-1.19016133248806 0.7020559161901474,-2.062276303768158 l0.000429761603299994,-2.213023006916046 -0.6784446537494659,-1.5888559818267822 m5.9059953689575195,0.5766856297850609 l0.18481753766536713,3.7409380078315735 0.501590222120285,1.175982877612114 l0.5825353786349297,0.4656295105814934 0.9744434058666229,-0.14205163344740868 l0.9557974338531494,-1.0895588994026184 0.5992968007922173,-2.0053593814373016 l0.0004029641786473803,-2.048942744731903 -0.6958665698766708,-1.5317356586456299 m3.353898525238037,-1.5411776304244995 l0.418437197804451,3.155452311038971 1.2968730926513672,2.3245950043201447 l0.6503558903932571,0.40240731090307236 0.991416871547699,-0.24924315512180328 l0.7522506266832352,-1.2660126388072968 0.23822296410799026,-2.0669539272785187 l-0.5867070704698563,-1.9164356589317322 -1.253788024187088,-1.3889887928962708 m-13.915233612060547,-6.156296730041504 l-0.6335566937923431,-0.02229023491963744 -0.8036094903945923,-0.3954401984810829 l-2.51792311668396,-2.2982142865657806 -1.2026248127222061,-1.479339599609375 l-2.346062660217285,-3.591688871383667 -0.9117674082517624,-1.7310862243175507 l-1.0019814223051071,-2.341742068529129 -0.5036098510026932,-1.5507061779499054 l-0.18118327483534813,-1.3039575517177582 0.3376045450568199,-1.03658527135849 l1.1256729066371918,-0.9753984212875366 1.8583215773105621,-0.6008312106132507 l2.067422568798065,0.13753357343375683 1.60819411277771,1.0951628535985947 l0.8856052905321121,1.250801682472229 0.8250794559717178,2.7963829040527344 l0.18570825457572937,3.933379054069519 1.4226488769054413,3.899659514427185 l2.1554772555828094,3.4336769580841064 1.1350313574075699,1.1855322867631912 m92.53284668144715,-9.259810332505367 l0.2207324095070362,-0.0027699762722477317 0.7604119181632996,-3.809961676597595 l0.4713224619626999,-1.692584902048111 0.16376111656427383,-0.6617118418216705 l0.16297508031129837,-0.4668324440717697 0.3368200734257698,-0.12902311980724335 l0.776812806725502,0.5662354826927185 1.0913444310426712,2.614491283893585 l0.889296755194664,2.0583821833133698 0.5582408234477043,0.8392715454101562 l4.533391296863556,-0.7338009774684906 2.699577212333679,-0.593133233487606 l1.5054020285606384,-1.1917506903409958 1.4122503995895386,-1.65480837225914 l0.9099755436182022,2.849974036216736 0.5378054082393646,2.3208321630954742 l0.23222962394356728,0.8390726894140244 -0.30234165489673615,1.4794538915157318 l-1.1263442784547806,1.086290255188942 -1.5355314314365387,0.7923056930303574 l-5.783912539482117,1.2887050211429596 -5.0641292333602905,1.5155917406082153 l-4.114925861358643,1.1711541563272476 -2.7924129366874695,8.395885743084364e-05 l-1.9091412425041199,-1.228022575378418 -1.1280275136232376,-1.7588040232658386 l-0.3055848740041256,-2.060864120721817 0.6727419793605804,-1.988157033920288 l0.9069544821977615,-0.9479717165231705 1.7961408197879791,-0.8549090474843979 l1.5354183316230774,-0.25326943024992943 m1.2435586750507355,5.469978451728821 l-3.9082148671150208,1.1719699203968048 -2.794167995452881,1.5131431818008423 l-6.1940377950668335,4.05795156955719 -3.236144185066223,2.5288230180740356 l-2.6193681359291077,2.576397955417633 -0.9235940128564835,1.3474741578102112 l0.00040005768823903054,1.1331125348806381 1.3674063980579376,0.9017063677310944 l3.345053493976593,0.6738089025020599 4.754149913787842,0.13317112810909748 l4.087492227554321,-0.5561027303338051 5.414270758628845,-1.7164824903011322 l4.525787830352783,-2.420201152563095 2.8884798288345337,-2.2113890945911407 l1.419837474822998,-1.9776800274848938 0.6449244171380997,-2.1411719918251038 l0.00028769167329301126,-1.8793793022632599 -0.4541294276714325,-0.7591619342565536 l-1.3610374927520752,-0.6414221227169037 -1.7992973327636719,-0.16760490834712982 m-20.44431209564209,10.335230827331543 l-0.9385967254638672,0.3987663611769676 -1.8371881544589996,0.638456717133522 l-5.113528370857239,1.6177305579185486 -2.5883889198303223,0.578242801129818 l-1.876063346862793,0.47476768493652344 -2.3723039031028748,0.6457822769880295 l-1.2855201959609985,0.42366109788417816 -1.796770989894867,0.5810901522636414 l-2.457994371652603,0.5868217721581459 -1.42610102891922,0.11244569905102253 l-3.5151895880699158,-0.8121852576732635 -1.7817053198814392,-0.9294316172599792 l-2.2177504003047943,-2.11910218000412 -0.974736213684082,-1.7408767342567444 l-0.43473992496728897,-1.794627457857132 0.21195292472839355,-1.712915152311325 l1.0534262657165527,-1.6683650016784668 1.862262636423111,-1.4453190565109253 l2.559429705142975,-1.0189911723136902 4.299445152282715,-0.6859514117240906 l4.0092310309410095,0.32184217125177383 4.3591925501823425,1.4375606179237366 l3.8447296619415283,0.49382150173187256 3.5364317893981934,0.6450473517179489 l3.552003800868988,0.7550445944070816 3.9864468574523926,0.06415918003767729 m-8.229585886001587,3.168931305408478 l-0.9096880257129669,4.697642922401428 -4.9968575694947504e-05,2.8724652528762817 l1.0915619879961014,0.8130303770303726 1.0064179450273514,-0.005635516718029976 l1.2418393790721893,-0.8366730064153671 1.0535114258527756,-1.7592139542102814 l0.46417318284511566,-2.3137937486171722 0.00047494850150542334,-2.403055727481842 m7.228943109512329,-0.26370249688625336 l-0.28350595384836197,4.976687133312225 0.43452683836221695,1.099792793393135 l0.6210640072822571,0.500001460313797 2.4799327552318573,-0.017270016251131892 l0.7452163100242615,-0.7847144454717636 0.6857962906360626,-1.7425613105297089 l0.115802688524127,-2.2987669706344604 -0.6398885697126389,-1.9748683273792267 m5.210351347923279,-1.209094151854515 l0.12018955312669277,3.958389461040497 1.1574030667543411,2.697652280330658 l0.6562436372041702,0.5325210839509964 1.136186644434929,0.001123883921536617 l1.0593785345554352,-0.9317358583211899 0.728813037276268,-1.8463528156280518 l0.00031957770261215046,-2.316652536392212 -0.8734903484582901,-1.9950659573078156 l-1.452198177576065,-1.5003858506679535 m-11.845215559005737,-7.824798822402954 l-0.41948679834604263,0.2234952710568905 -0.5232427269220352,1.5189656615257263 l0.06402542814612389,0.9365566819906235 1.0507385432720184,1.0741615295410156 l1.8617628514766693,0.24634001776576042 1.4128541946411133,-0.6071032211184502 l0.865471288561821,-1.2075207382440567 0.17319591715931892,-1.4647755026817322 l-0.7242852449417114,-1.152237132191658 -1.4785349369049072,-0.7969765365123749 m-0.12170681729912758,-2.468114048242569 l-0.05457471590489149,1.633717268705368 0.5835669115185738,0.7042112201452255 l0.7005943357944489,0.15650490298867226 0.7418997585773468,-0.5393023043870926 l0.2691662684082985,-1.240566223859787 -0.5300232768058777,-1.0381919890642166 m-2.907167971134186,-0.4034644365310669 l0.30840687453746796,1.0667620599269867 m53.367252305160946,-2.644585842849665 l0.23209376260638237,0.0230689300224185 0.9179099649190903,-3.783068358898163 l0.4925524443387985,-1.7334067821502686 0.04192457068711519,-0.7049011439085007 l-0.18389621749520302,-0.5543834343552589 -0.37476319819688797,-0.3460978716611862 l-1.0085917264223099,-0.13446533121168613 -1.2869548797607422,0.9126857668161392 l-0.9090673178434372,1.490749716758728 -0.8733710646629333,2.8617045283317566 l-0.0001761105886544101,2.1898575127124786 0.43300479650497437,1.293834000825882 l1.3911397755146027,1.4523649215698242 1.1959920823574066,0.9223024547100067 l3.5052555799484253,1.2578684091567993 2.3481088876724243,-0.00030564544431399554 l5.863947868347168,-2.143317312002182 2.6781463623046875,-1.8622222542762756 l1.104275956749916,-1.5508194267749786 0.3822382539510727,-1.281406432390213 l-0.24508612230420113,-1.4655067026615143 -1.2289424240589142,-1.3564041256904602 l-2.2631612420082092,-0.8915805071592331 -3.0135735869407654,-0.1122933067381382 l-2.4363046884536743,0.49263354390859604 -2.0709125697612762,0.9816320985555649 l-1.6629518568515778,1.3713601231575012 -1.0482313483953476,1.6123254597187042 m-3.248549997806549,4.375624060630798 l-2.353835105895996,0.8470717072486877 -2.4906982481479645,1.671976000070572 l-5.557183623313904,4.565657675266266 -1.2268197536468506,1.8080253899097443 l-0.5629893764853477,1.6946731507778168 0.3205718472599983,1.526879221200943 l0.6968342512845993,0.8873531222343445 2.5935420393943787,1.6596271097660065 l4.020127058029175,1.173999086022377 5.372956991195679,0.5498781055212021 l5.462536811828613,6.178953299240675e-05 3.643063008785248,-0.677427276968956 l2.852940857410431,-1.1178604513406754 2.124768942594528,-1.4851424098014832 l1.1921857297420502,-1.6289836168289185 0.5342874675989151,-2.025071531534195 l-0.16170114278793335,-2.2261837124824524 -1.13663949072361,-2.0322033762931824 l-1.9359228014945984,-1.8258078396320343 -2.554669678211212,-1.318216323852539 l-3.019064962863922,-0.6424795091152191 -2.5026535987854004,-0.0002210584352724254 m11.132391691207886,7.244494557380676 l4.720740020275116,-1.4988717436790466 5.759438872337341,-1.699647307395935 l4.99909907579422,-0.811353400349617 5.137259364128113,-0.2098189853131771 l4.744239151477814,0.6461908668279648 4.065309166908264,1.6664008796215057 l1.383008062839508,1.054132655262947 1.5906478464603424,2.1857085824012756 l0.4223310947418213,1.5993516147136688 -0.1970428042113781,1.344485729932785 l-0.8795711398124695,1.2496647238731384 -1.5532204508781433,1.1143256723880768 l-2.171325385570526,0.8916843682527542 -4.8967403173446655,0.9723015129566193 l-10.323319435119629,0.3091870807111263 -6.619081497192383,-0.14415714889764786 l-9.869712591171265,-1.2743207812309265 -3.8561517000198364,-1.0184981673955917 l-2.3736760020256042,-1.1014118045568466 -0.46178169548511505,-0.9247781336307526 l0.2158300206065178,-0.676591619849205 m36.7414927482605,-3.776671290397644 l1.590712070465088,-2.1172064542770386 1.617720127105713,-3.763248026371002 l0.8529503643512726,-2.216697782278061 0.9888654202222824,-2.9451894760131836 l0.6964808702468872,-1.7607946693897247 1.1338838189840317,-2.231314033269882 l1.12505741417408,-1.4458759129047394 1.29873126745224,-0.9011173248291016 l1.4949563145637512,-0.24733327329158783 1.4583180844783783,0.5137318000197411 l0.950227826833725,0.9492950886487961 0.4927833005785942,1.1993523687124252 l-0.11837593279778957,2.832466959953308 -1.3475081324577332,2.1845172345638275 l-1.6618922352790833,1.6497375071048737 -3.6049312353134155,2.267032712697983 l-1.415310800075531,1.63422092795372 -2.4999387562274933,4.261602759361267 l-1.7961443960666656,1.5631574392318726 m-32.993879318237305,4.1470736265182495 l-2.5714975595474243,3.5954123735427856 -0.8909773081541061,2.242053300142288 l0.01697537605650723,0.6924852728843689 0.488244965672493,0.2646135166287422 l1.2493782490491867,-0.3581663966178894 1.632465422153473,-1.379518210887909 l1.2369894981384277,-1.9469521939754486 0.8791989088058472,-3.0626079440116882 m8.709743618965149,1.6161243617534637 l-0.8385363221168518,3.265126645565033 0.36640532314777374,2.0856434106826782 l0.6113791093230247,0.4245832562446594 0.6762726604938507,-0.002182470343541354 l1.024082601070404,-0.8876252174377441 0.8749397844076157,-1.9156534969806671 l0.2837750315666199,-2.1754762530326843 m6.922043561935425,-0.2988126315176487 l0.0353165902197361,3.256959617137909 0.5332177132368088,1.0876654088497162 l0.6111233681440353,0.29316484928131104 0.5418189987540245,-0.17425164580345154 l0.6802333146333694,-1.1454273015260696 0.3576348349452019,-2.068276107311249 l-0.30131272971630096,-1.8457983434200287 m-19.638042449951172,-11.23050570487976 l-0.24464933201670647,0.29516419395804405 0.00015490046280319802,0.7161002606153488 l0.38090456277132034,0.34246500581502914 0.4548397660255432,-0.6231623515486717 l-0.10738152079284191,-0.4108879715204239 m3.7249821424484253,-0.31164130195975304 l0.17114117741584778,0.6512122601270676 0.6145258247852325,0.1525518298149109 l0.15616808086633682,-0.5427539348602295 m-7.18051016330719,1.032915636897087 m73.00486850497691,-7.342812728034005 l0.22143753245472908,0.010414741700515151 1.0584159195423126,-3.687707781791687 l0.5217838287353516,-1.8086066842079163 -0.044496338814496994,-0.7440456748008728 l-0.4760730266571045,-0.614124983549118 -1.0279180854558945,-0.4453391581773758 l-1.788569837808609,0.028384015895426273 -1.6202013194561005,0.6318576633930206 l-1.4290286600589752,1.1791279166936874 -0.9975841641426086,1.5544405579566956 l-0.8000302314758301,2.6515820622444153 -0.00020796123862965032,1.924005001783371 l0.8995964378118515,1.7952391505241394 1.1086015403270721,0.8088012784719467 l3.5536545515060425,0.814935564994812 2.2528403997421265,-0.00032814452424645424 l1.626942753791809,-0.6906476616859436 1.1409083008766174,-1.6170702874660492 l0.5165036022663116,-2.1288976073265076 0.0002333042721147649,-1.7288583517074585 l-0.7608269900083542,-1.5350496768951416 -1.7582917213439941,-1.1850839108228683 l-2.03737273812294,-0.6114394962787628 -2.1011823415756226,-0.11660980992019176 m-3.318285644054413,6.1632466316223145 l-3.0248335003852844,0.6157057732343674 -2.936883270740509,1.4055880904197693 l-6.433714032173157,4.788725972175598 -3.0667516589164734,3.6800193786621094 l-0.8256332576274872,1.9316403567790985 0.00035753353586187586,2.390683889389038 l1.4685341715812683,2.0598329603672028 1.426776498556137,1.1494411528110504 l4.003267288208008,1.894957423210144 4.9771848320961,0.8825493603944778 l5.870322585105896,0.0001593852721271105 4.154564142227173,-0.7216077297925949 l3.381630778312683,-1.1856532841920853 2.7188917994499207,-1.527915745973587 l1.8733693659305573,-1.6485269367694855 1.1630509048700333,-1.8249422311782837 l0.5693172290921211,-2.0811380445957184 -0.08300109766423702,-2.128302752971649 l-0.9605079144239426,-2.075169086456299 -1.8210068345069885,-1.9428972899913788 l-2.563138008117676,-1.5875038504600525 -3.0864760279655457,-0.9832838922739029 l-3.2486221194267273,-0.2784583158791065 -2.2311872243881226,0.2764366567134857 l-1.7124031484127045,0.7842039316892624 m12.724251747131348,4.225967526435852 l4.321853220462799,-1.2163510173559189 7.4025774002075195,-2.078525274991989 l8.292566537857056,-1.8020997941493988 7.346378564834595,-1.521410197019577 l5.495201945304871,-1.1551360785961151 4.937310218811035,-1.1650105565786362 l3.606142997741699,-0.744640976190567 3.035532832145691,-0.0004118212382309139 l1.5514792501926422,0.6141792610287666 1.0113871097564697,1.0099311918020248 l0.4771284759044647,1.2387054413557053 -0.05133034661412239,1.476762294769287 l-0.7449860870838165,1.5403924882411957 -1.4491362869739532,1.5758106112480164 l-3.0384215712547302,1.6430355608463287 -3.364630937576294,1.15970179438591 l-6.198854446411133,1.0900148004293442 -13.522610664367676,0.8148100227117538 l-8.051958084106445,0.9554491937160492 -10.881963968276978,1.1215490847826004 l-1.8898110091686249,0.2499648556113243 m-4.20316606760025,-2.797580361366272 l2.128140926361084,0.03729111747816205 6.037147045135498,-0.8208359032869339 l17.608360052108765,-3.515116572380066 9.219039678573608,-2.0276060700416565 l3.960011899471283,-1.3442087173461914 2.501693069934845,-1.3240553438663483 l2.0207038521766663,-0.5056346952915192 m-43.11640739440918,9.509689807891846 l2.5302767753601074,-0.21817270666360855 9.973029494285583,-1.9658757746219635 l12.314858436584473,-2.4970653653144836 10.198187828063965,-2.334761917591095 l4.205784499645233,-1.4097940921783447 2.419646680355072,-1.3047628104686737 m-43.51088047027588,10.03438949584961 l0.8081594109535217,-0.2578171156346798 6.54474675655365,-1.5321937203407288 l10.271633863449097,-2.2046421468257904 10.349756479263306,-2.322012782096863 l8.732302188873291,-2.1177352964878082 3.583924174308777,-1.2967048585414886 l2.0187312364578247,-1.214105263352394 m-1.7245718836784363,-0.8965355157852173 l-0.20071564242243767,-0.4464733973145485 0.35196445882320404,-0.6493417918682098 l1.1595434695482254,-0.8636512607336044 1.8176887929439545,-0.5062201619148254 l1.7029045522212982,0.34848153591156006 1.213962584733963,1.2799490988254547 l0.39339132606983185,1.1355215311050415 -0.14468328095972538,1.0264172405004501 l-0.7272645086050034,0.8542853593826294 -1.1727922409772873,0.5699663236737251 l-1.302327811717987,0.2119365893304348 -1.1298537999391556,-0.15965797007083893 l-1.0150417685508728,-0.7740020006895065 -0.5603110790252686,-1.3506773114204407 l0.3172532841563225,-1.4841599762439728 0.8001013845205307,-0.7479453086853027 l1.4664119482040405,-0.4953555762767792 1.7161889374256134,0.083793168887496 l1.329287439584732,0.9829055517911911 0.5025580525398254,1.0052433609962463 l-0.11199654079973698,0.9696275740861893 -0.7479847222566605,0.8303757756948471 l-1.1892997473478317,0.49004778265953064 -1.2925048172473907,0.07598673459142447 l-1.9991308450698853,-0.6032201275229454 -0.5931460112333298,-1.3695375621318817 l0.3976834937930107,-1.594456285238266 0.8802324533462524,-0.7865525782108307 l1.5660279989242554,-0.5088429898023605 1.7503000795841217,0.1693500578403473 l1.3342399895191193,1.034460961818695 0.45476753264665604,0.9959836304187775 l-0.18141785636544228,0.9465160220861435 m43.79293688387406,2.2328967814064526 l0.18013309687376022,-0.0034955007140524685 1.0839777439832687,-3.4509435296058655 l0.5367368832230568,-1.8279100954532623 -0.12241587042808533,-0.8144132047891617 l-0.7741789519786835,-0.7040072977542877 -1.5866191685199738,-0.527457483112812 l-1.8310664594173431,-0.11804553680121899 -1.833074539899826,0.3944755718111992 l-1.6554640233516693,0.9397143870592117 -1.3689298927783966,1.4341773092746735 l-0.8812388032674789,1.7581748962402344 -0.4755372554063797,2.5554341077804565 l-0.5089355260133743,1.1892151832580566 -0.9632191807031631,1.3622339069843292 l-1.4049974083900452,0.6798144429922104 -4.776702523231506,0.2987159416079521 l-2.8399455547332764,0.528700090944767 -1.336628943681717,0.6840433925390244 l-1.2614881992340088,1.4227889478206635 -0.5977766588330269,1.87779039144516 l-4.811432518181391e-05,2.36947163939476 0.46863265335559845,1.143602579832077 l1.9505490362644196,2.2683684527873993 2.827458679676056,1.6820219159126282 l4.597374796867371,1.5066395699977875 4.994438588619232,0.6609354168176651 l5.501494407653809,-0.00023528529709437862 3.258136212825775,-1.0838919132947922 l1.7280425131320953,-1.3192597031593323 0.9456218779087067,-1.5926145017147064 l0.17904018983244896,-1.5864300727844238 -0.5585945397615433,-1.3443580269813538 l-1.9576308131217957,-1.6968901455402374 -0.5673792585730553,-1.0179371386766434 l-0.1704917661845684,-0.9481069445610046 0.33633798360824585,-0.9582123160362244 l1.7185159027576447,-1.5053893625736237 2.0576277375221252,-1.0035666078329086 l6.458181142807007,-0.8155406266450882 12.8387451171875,-0.07991577498614788 l6.063212752342224,-0.04558918531984091 1.9197428226470947,-0.3199859708547592 l0.7617908716201782,-0.4873226210474968 0.7858896255493164,-2.470003068447113 l-0.21128226071596146,-1.050674021244049 -0.7366173714399338,-0.44278740882873535 l-14.556748867034912,0.847492516040802 -13.970606327056885,1.1288582533597946 l-4.899567365646362,0.5411611124873161 m-4.450286626815796,5.63656747341156 l1.175265684723854,0.7784843444824219 2.065942883491516,2.2085310518741608 l1.3894617557525635,1.1727514117956161 3.6065980792045593,2.014279067516327 l2.199423164129257,0.5284837633371353 2.2958803176879883,-0.00042598308937158436 l5.016083717346191,-1.6089427471160889 3.5299670696258545,-1.7893996834754944 l2.0500949025154114,-1.6002774238586426 1.3443391025066376,-1.6617333889007568 l0.7325313985347748,-1.7892196774482727 0.09727190248668194,-1.9189445674419403 l-0.8470651507377625,-1.7741072177886963 -2.0248278975486755,-1.5702952444553375 l-2.915230095386505,-0.9186844527721405 -5.135968923568726,-0.11912798509001732 l-2.804439961910248,0.6142557039856911 -2.244480550289154,1.1019174009561539 l-1.6871987283229828,1.4825259149074554 -0.9289413690567017,1.6525514423847198 l-0.21653074771165848,1.478857547044754 0.4496151953935623,1.271529495716095 l1.4956815540790558,0.8777706325054169 2.340310662984848,0.4188116639852524 l2.524595260620117,-0.31760193407535553 2.1582703292369843,-1.1417388916015625 l1.3219185173511505,-1.4709419012069702 0.47616712749004364,-1.5530528128147125 l-0.4977595806121826,-1.2931132316589355 -1.638266146183014,-0.8025198429822922 l-1.9564500451087952,-0.23111524060368538 -1.890217363834381,0.3942443057894707 l-1.7134290933609009,1.0895507782697678 -1.0969091206789017,1.4935120940208435 l-0.3074374981224537,1.76759734749794 0.48020683228969574,1.6415618360042572 l0.7724785804748535,0.8072752505540848 1.1705552786588669,0.49979571253061295 l1.6815552115440369,-0.09715111926198006 1.6857574880123138,-0.991816371679306 l1.0819515585899353,-1.480855792760849 0.34319978207349777,-1.675136685371399 l-0.522494800388813,-1.3041271269321442 -1.3753408193588257,-0.7571659982204437 l-1.5003161132335663,-0.10809604078531265 -1.3548213243484497,0.5990318581461906 l-1.0907551646232605,1.2886834144592285 -0.4924030601978302,1.876576691865921 l0.33460043370723724,1.6715501248836517 0.6552231311798096,0.6904062628746033 l1.9781354069709778,0.4977225512266159 1.7608867585659027,-0.6335830688476562 l1.134314015507698,-1.3687306642532349 0.396508052945137,-1.6358226537704468 l-0.400482676923275,-1.3278169929981232 -1.159505620598793,-0.6950166821479797 l-1.7931829392910004,-0.05213388707488775 -1.3587775826454163,0.7193554192781448 l-0.8998047560453415,1.3575629889965057 -0.16340166330337524,1.792418211698532 l0.42999211698770523,0.7776156812906265 0.8873701840639114,0.5089467391371727 l1.4237768948078156,-0.11454529128968716 1.2707385420799255,-0.9771315008401871 l0.7298280298709869,-1.446538120508194 0.0076342246029525995,-1.2923355400562286 l-0.8149116486310959,-0.7598922401666641 -1.4919833838939667,-0.19076965749263763 l-1.2962540984153748,0.5503307282924652 -0.9180533140897751,1.197846531867981 l-0.22489700466394424,1.5482805669307709 0.4061201959848404,0.7282933592796326 l1.170010045170784,0.36528144031763077 1.4288347959518433,-0.44327519834041595 l1.0317817330360413,-1.1888595670461655 0.33135905861854553,-1.3463057577610016 l-0.44157348573207855,-0.9265453368425369 -1.1694487184286118,-0.4185927286744118 l-1.146107092499733,0.21840909495949745 m88.81573639239832,-3.402627224952539 l0.11489356867969036,-0.02146241720765829 0.951431468129158,-2.912498116493225 l0.5005772784352303,-1.7013275623321533 -0.21669939160346985,-0.7972784340381622 l-0.9921222180128098,-0.7473798841238022 -1.656433641910553,-0.5193312093615532 l-2.0067042112350464,-0.13411828316748142 -2.0480194687843323,0.3845493495464325 l-1.9969762861728668,0.9755175560712814 -1.7788900434970856,1.479463130235672 l-1.228746771812439,1.747395247220993 -0.6416525691747665,1.5720152854919434 l-0.3668469190597534,2.013542950153351 -0.5644289404153824,1.0227815061807632 l-2.5695008039474487,1.644299179315567 -2.5059038400650024,0.537743866443634 l-5.643861889839172,-0.7658971101045609 -3.315007984638214,-0.02163437893614173 l-2.6505401730537415,0.9535320103168488 -1.8016737699508667,1.4445266127586365 l-0.8351444453001022,1.2131021916866302 -0.5041684955358505,1.8621912598609924 l-0.000136395356093999,2.3544426262378693 0.44358648359775543,1.2048781663179398 l1.9704395532608032,2.611558735370636 2.878563404083252,2.091057151556015 l4.47683185338974,1.9393926858901978 4.652919769287109,1.0443343967199326 l5.100085139274597,0.4216747358441353 4.274013936519623,-0.00040866998460842296 l2.7220526337623596,-0.6206632778048515 2.178611606359482,-1.1910662055015564 l1.3473707437515259,-1.5451787412166595 0.650441125035286,-1.9058088958263397 l-0.14268206432461739,-3.0275744199752808 0.4285045340657234,-0.47848694026470184 l3.0497103929519653,-0.32150253653526306 3.601658046245575,6.450624368881108e-05 l1.4595851302146912,-0.496254526078701 1.1419889330863953,-1.0644452273845673 l0.6510146707296371,-1.9201372563838959 -0.316738598048687,-2.413398176431656 l-1.6456441581249237,-2.396083027124405 -3.67365300655365,-2.8867322206497192 l-3.09775710105896,-1.2017910927534103 m-12.930434942245483,7.944398522377014 l-0.9431220591068268,-0.03142290050163865 -1.6464249789714813,1.074412316083908 l-1.1517168581485748,1.8578645586967468 -7.25330119166756e-05,1.5047980844974518 l1.1529959738254547,0.9247735142707825 2.088872343301773,0.27814870700240135 l1.9504676759243011,-0.5111628770828247 1.3555558025836945,-1.189483255147934 l0.5162842944264412,-1.5441720187664032 -0.36142420023679733,-1.374136060476303 l-1.2037280946969986,-0.8691410720348358 -1.9136084616184235,-0.3821643441915512 m7.2620391845703125,-2.650657892227173 l4.480305910110474,-1.724454015493393 10.19538164138794,-4.589021801948547 l15.730303525924683,-6.339757442474365 3.647146224975586,-1.134537160396576 l1.107366681098938,1.4939674735069275 0.5133754014968872,2.9378989338874817 l-0.44102907180786133,0.8664009720087051 -1.4316688477993011,1.1164721846580505 l-3.5477659106254578,1.6495399177074432 -11.50225281715393,3.6232858896255493 l-8.426408171653748,3.3563899993896484 -5.82305371761322,1.6101278364658356 l-2.314502000808716,0.9425646811723709 m29.78689193725586,-16.478679180145264 l-1.1807063966989517,-0.7242235541343689 -1.8608613312244415,-0.4986650124192238 l-2.1276170015335083,0.12002978473901749 -0.9580540657043457,0.5567911267280579 l-0.5882054194808006,1.0567417740821838 0.1072824839502573,1.3428786396980286 l0.5966399610042572,0.7533086836338043 2.271113395690918,1.1046872287988663 l2.917872369289398,0.37613585591316223 2.1100077033042908,-0.4149274528026581 l1.3458029925823212,-1.0082713514566422 0.4460613429546356,-1.3925684988498688 l-0.6462313234806061,-1.3060329854488373 -1.670314073562622,-0.8705517649650574 l-2.4806907773017883,-0.31146183609962463 -1.9097958505153656,0.3407760336995125 m2.135884314775467,3.015475869178772 l-6.145757436752319,2.3273026943206787 -15.838496685028076,5.326656103134155 l-17.122410535812378,5.443629622459412 -14.454975128173828,5.35427451133728 l-4.774301052093506,1.4124788343906403 -1.436210721731186,0.7150516659021378 m59.9425745010376,-20.54922103881836 l-5.6917256116867065,2.51313716173172 -21.026957035064697,8.441889882087708 l-17.262845039367676,6.9514429569244385 -14.926809072494507,5.940335392951965 l-4.42609965801239,1.1326432973146439 m63.04096698760986,-25.51870822906494 l-5.859675407409668,2.811278998851776 -19.805291891098022,7.732875943183899 l-18.006070852279663,6.9790953397750854 -15.583479404449463,6.106656193733215 l-5.132988095283508,1.3480553030967712 m63.29609394073486,-25.71129560470581 l-5.201170444488525,2.520098388195038 -19.46380853652954,7.3026615381240845 l-17.503812313079834,6.473644375801086 -15.281970500946045,5.5801695585250854 l-5.5656033754348755,1.4333926141262054 -3.592378795146942,1.1563482880592346 l-1.324264407157898,0.8347250521183014 m65.1358699798584,-24.132676124572754 l-5.150024890899658,2.628413438796997 -6.750848889350891,2.6398810744285583 l-16.460148096084595,5.232049822807312 -18.078089952468872,5.863179564476013 l-15.43975830078125,5.045968294143677 -5.789507627487183,1.3931818306446075 l-1.8259672820568085,0.7104552537202835 -0.7238869369029999,0.6815142929553986 l0.16847088932991028,0.8792226761579514 m119.78629692329378,-17.38398888350048 l0.017737654270604253,-0.049056969583034515 0.8907191455364227,-2.550486922264099 l0.4141860082745552,-1.601390540599823 -0.2969711273908615,-0.780804231762886 l-1.1878189444541931,-0.7442406564950943 -1.7974360287189484,-0.48028115183115005 l-3.922887444496155,-0.14178823679685593 -2.5003811717033386,0.5100483447313309 l-2.293310761451721,1.0567980259656906 -1.9440771639347076,1.4643469452857971 l-1.3806147873401642,1.7570555210113525 -0.7380674779415131,1.6671976447105408 l-0.3278995677828789,2.1632441878318787 -0.551450252532959,1.1901503801345825 l-1.2577268481254578,0.7614541798830032 -3.1922435760498047,0.6600510329008102 l-6.316730380058289,-0.5095350742340088 -3.772297203540802,0.2819656766951084 l-1.6366668045520782,0.600929968059063 -1.8033885955810547,1.326308399438858 l-1.3688206672668457,1.851857602596283 -0.6254053115844727,1.6056755185127258 l-0.0001406359933753265,2.79634952545166 0.47736193984746933,1.3474299013614655 l1.9936533272266388,2.906768023967743 2.659277021884918,2.272464483976364 l3.131183087825775,1.7987878620624542 4.897804856300354,1.683112233877182 l5.114477276802063,0.7709068804979324 4.55012708902359,-0.0003383037619641982 l2.983510196208954,-0.8030121028423309 2.2298532724380493,-1.3244372606277466 l1.5177035331726074,-1.7372141778469086 0.7136613130569458,-2.0291689038276672 l-0.008327715913765132,-2.004665434360504 -0.6329354643821716,-1.4804823696613312 l-1.0240120440721512,-1.1744962632656097 -1.2035653740167618,-0.9269217401742935 l4.600230157375336,1.0135401040315628 4.431557655334473,0.3149818256497383 l3.541247248649597,-0.8157458901405334 2.165392190217972,-1.507093757390976 l1.211264729499817,-2.1203140914440155 0.16583973541855812,-2.4871329963207245 l-1.0807810723781586,-2.431028336286545 -2.2678333520889282,-2.2678785026073456 l-4.455533921718597,-2.4187131226062775 m-13.092715740203857,6.596242189407349 l-0.3489956632256508,-0.47848451882600784 -0.41409462690353394,-0.5303043872117996 l-0.7042161375284195,-0.38812775164842606 -1.2036392092704773,0.04308315459638834 l-1.3479556143283844,0.8065721392631531 -1.1025945097208023,1.4885640144348145 l-0.4180382192134857,1.8427228927612305 0.28299249708652496,1.5778018534183502 l0.5901928618550301,0.7843237370252609 1.583000123500824,0.5660474672913551 l2.0119448006153107,-0.00010117005331267137 1.776989996433258,-0.8005250990390778 l1.210755631327629,-1.4280909299850464 0.3890421986579895,-1.7529100179672241 l-0.45218102633953094,-1.5783412754535675 -1.3185077905654907,-1.0184476524591446 l-2.044401168823242,-0.48778925091028214 m7.758800983428955,-1.711607575416565 l4.554195702075958,-1.872851848602295 23.00788402557373,-10.114473104476929 l9.751863479614258,-3.7451276183128357 5.3585124015808105,-1.5694080293178558 l1.04832224547863,2.1395400166511536 -0.2014606073498726,3.4187090396881104 l-1.2115705013275146,2.2352121770381927 -2.1960800886154175,2.311650365591049 l-3.921288549900055,2.6603180170059204 -12.383830547332764,5.325532555580139 l-15.326756238937378,4.14347231388092 -2.7363571524620056,0.8031421899795532 l-2.7620691061019897,0.010502528166398406 m36.62778854370117,-22.134323120117188 l-2.385083884000778,-0.032799888867884874 -3.6489158868789673,0.9658797085285187 l-11.162981986999512,4.39223438501358 -22.98640727996826,8.899664282798767 l-13.433153629302979,5.410212874412537 -12.372899055480957,4.967399835586548 l-5.640382170677185,2.9376140236854553 -3.1239303946495056,2.1825850009918213 l-0.5028610676527023,1.0472342371940613 1.0470054298639297,-0.05826945882290602 l1.9939176738262177,-0.5905821546912193 2.7121591567993164,-1.5648579597473145 l2.649025022983551,-1.1430194228887558 2.942417562007904,-2.063923180103302 l2.5094014406204224,-1.2889279425144196 2.949693202972412,-2.3748016357421875 l2.4711233377456665,-1.428835242986679 2.4899615347385406,-0.8394075930118561 l2.759163975715637,-1.6393443942070007 2.3533959686756134,-0.8800388872623444 l17.36995220184326,-5.106250047683716 11.418294906616211,-3.7384766340255737 l9.93521511554718,-3.356206715106964 9.060471057891846,-2.9779163002967834 l7.1798306703567505,-2.478659301996231 2.219790369272232,-1.0962964594364166 m-3.146938383579254,0.07469162810593843 l-1.1431371420621872,0.8518123626708984 -2.5798362493515015,1.3159669935703278 l-18.15321445465088,7.756322026252747 -15.181446075439453,5.96778929233551 l-14.699012041091919,5.881600379943848 -12.892149686813354,5.342329144477844 l-4.823904633522034,2.704741656780243 -2.6524394750595093,2.1840471029281616 m67.06015586853027,-31.346936225891113 l-5.085055232048035,2.375694066286087 -19.721471071243286,8.726864457130432 l-18.51888418197632,8.181883096694946 -16.506454944610596,7.498981952667236 l-6.222020983695984,3.5803422331809998 -2.6937419176101685,1.0521680861711502 m66.04809284210205,-30.710103511810303 l-6.896238327026367,2.9079291224479675 -22.054474353790283,9.49109673500061 l-18.441301584243774,8.411287665367126 -15.730115175247192,7.160362601280212 l-4.889238476753235,1.5603446960449219 -1.258644461631775,0.6383383274078369 m112.8903999160093,-18.463573241283484 l-0.10329880751669407,-0.08832109160721302 0.7659729570150375,-2.1387267112731934 l0.2895943820476532,-1.4065943658351898 -0.4753520339727402,-1.0459481924772263 l-1.5064550936222076,-0.856415405869484 -2.8514012694358826,0.00041372528357896954 l-2.2862644493579865,0.6800643354654312 -2.095358967781067,1.2777720391750336 l-1.7252738773822784,1.6614243388175964 -1.1450225114822388,1.7042656242847443 l-1.2930156290531158,1.0216343402862549 -2.281557023525238,1.0277124494314194 l-2.759721279144287,0.3132597357034683 -5.767717957496643,-1.398104578256607 l-4.110250473022461,-0.577026903629303 -4.062642455101013,-3.1189438232104294e-05 l-2.8612136840820312,0.6489352881908417 -2.375355064868927,1.1585672944784164 l-1.9375689327716827,1.5685413777828217 -1.5145541727542877,2.0373140275478363 l-1.0112309455871582,2.625398337841034 -0.0002267848321935162,3.2634010910987854 l0.46298079192638397,1.5417352318763733 1.79228276014328,3.13472181558609 l2.1093109250068665,2.3579134047031403 3.632647395133972,2.6267367601394653 l4.3891602754592896,1.9391602277755737 3.9411747455596924,0.8734993636608124 l4.702049493789673,0.24612916633486748 2.9055753350257874,-0.5573706701397896 l2.641502320766449,-1.2380551546812057 2.1436138451099396,-1.7686620354652405 l1.8865253031253815,-2.940901517868042 0.7115018367767334,-1.9990187883377075 l0.3818869963288307,-1.3815860450267792 0.41457414627075195,-1.099112182855606 l0.7597284764051437,-1.0072532296180725 1.5144068002700806,-0.8785156905651093 l2.469007968902588,-0.5002913624048233 2.7247923612594604,0.12717751786112785 l6.216907501220703,1.9765906035900116 4.121867418289185,0.5897416546940804 l2.488589733839035,-1.2537112832069397 1.2263908982276917,-2.0820429921150208 l0.2554725855588913,-2.7885881066322327 -0.9381069242954254,-2.9288524389266968 l-3.107406497001648,-4.018068015575409 -3.172861337661743,-2.129141092300415 l-3.2637175917625427,-0.9971659630537033 m-19.70884919166565,9.801651239395142 l-1.0601723939180374,0.15728702768683434 -1.4322876930236816,1.0971099138259888 l-1.1631924659013748,2.0570984482765198 -6.530582140840124e-05,1.8579010665416718 l0.45367125421762466,0.8113517612218857 1.8641456961631775,1.214863508939743 l2.676413655281067,0.30378837138414383 2.0051580667495728,-0.6860826909542084 l1.4804960787296295,-1.4099045097827911 0.6888167560100555,-1.8369458615779877 l-0.1662893034517765,-1.8552707135677338 -1.161358654499054,-1.314672976732254 l-1.9278055429458618,-0.8048288524150848 -2.449403256177902,-0.08105481043457985 m12.62012243270874,-2.9466351866722107 l5.18391489982605,-1.6471928358078003 24.658608436584473,-8.12152624130249 l7.105799913406372,-1.87493234872818 7.462117075920105,-1.5642479062080383 l5.9190696477890015,-1.1752216517925262 5.0941479206085205,-0.9556736797094345 l0.9421614557504654,2.088017463684082 -0.12001749128103256,2.2673839330673218 l-0.7867129147052765,0.9296008199453354 -2.054600864648819,1.1643679440021515 l-4.716204404830933,1.642245203256607 -13.239177465438843,3.1116077303886414 l-10.74429988861084,3.161958158016205 -16.41108751296997,4.448216557502747 l-3.1364238262176514,1.023225486278534 -3.3633488416671753,0.4272717982530594 m46.96608543395996,-19.53373432159424 l-1.60427525639534,0.04372937139123678 -3.405812382698059,1.395704448223114 l-10.412734746932983,5.273958444595337 -21.442103385925293,8.255661725997925 l-15.384302139282227,5.457546710968018 -14.767948389053345,4.921264052391052 l-5.6238096952438354,2.6729971170425415 -1.984560638666153,0.8355025202035904 m73.66917610168457,-27.4830961227417 l-6.095883846282959,2.170744687318802 -23.745694160461426,9.487881064414978 l-18.462014198303223,7.859020829200745 -17.20860719680786,7.419356107711792 l-5.709169507026672,1.735895425081253 -3.944869339466095,1.6634327173233032 m74.34855461120605,-31.27258539199829 l-5.959678888320923,2.5473353266716003 -22.60526418685913,9.053443670272827 l-18.66575837135315,7.888632416725159 -16.86996102333069,7.150639295578003 l-5.867096781730652,1.8206296861171722 m68.1229305267334,-28.618271350860596 l-6.2876975536346436,2.5206100940704346 -21.637189388275146,8.454293012619019 l-18.582615852355957,7.701846957206726 -16.67464256286621,6.906008720397949 l-5.657433867454529,1.655174195766449 -3.655155897140503,1.3599251210689545 m69.71037864685059,-28.155641555786133 l-5.5759197473526,2.2641655802726746 -22.047176361083984,7.912051677703857 l-17.19074845314026,6.7003947496414185 -16.57806634902954,6.455138325691223 l-5.927216410636902,1.6483180224895477 -2.006087303161621,0.882057324051857 l-0.8237992972135544,0.8425158262252808 m65.21129608154297,-24.410970211029053 l-5.34345269203186,2.78527170419693 -20.25717258453369,7.2353410720825195 l-18.14959406852722,6.424728631973267 -16.680420637130737,5.866315960884094 l-5.945971608161926,2.7283182740211487 -3.743552565574646,2.3594434559345245 l-2.1372181177139282,0.8169887214899063 " fill="none" stroke="black" stroke-width="1" /></svg>